<svg width="605" height="413" viewBox="0 0 605 413" fill="none" xmlns="http://www.w3.org/2000/svg">
<rect x="3" width="602" height="413" rx="34" fill="white"/>
<rect x="3" width="602" height="413" rx="34" fill="white"/>
<path d="M539 8H40C17.9086 8 0 25.9086 0 48V354C0 376.091 17.9086 394 40 394H539C561.091 394 579 376.091 579 354V48C579 25.9086 561.091 8 539 8Z" fill="white"/>
<path d="M307.395 310.8H114.305C111.155 310.795 108.605 308.24 108.605 305.09V33.66C108.632 30.53 111.175 28.005 114.305 28H307.395C310.548 28 313.105 30.556 313.105 33.71V305.09C313.105 308.244 310.548 310.8 307.395 310.8ZM114.305 28.2C111.293 28.206 108.855 30.648 108.855 33.66V305.09C108.855 308.102 111.293 310.544 114.305 310.55H307.395C310.408 310.545 312.849 308.103 312.855 305.09V33.66C312.849 30.647 310.408 28.205 307.395 28.2H114.305Z" fill="#E6E6E6"/>
<path d="M523.705 310.8H330.605C327.454 310.795 324.9 308.241 324.895 305.09V33.66C324.928 30.528 327.473 28.005 330.605 28H523.705C526.831 28.011 529.368 30.534 529.395 33.66V305.09C529.395 308.236 526.851 310.789 523.705 310.8ZM330.605 28.2C327.592 28.206 325.15 30.647 325.145 33.66V305.09C325.15 308.103 327.592 310.544 330.605 310.55H523.705C526.718 310.545 529.159 308.103 529.165 305.09V33.66C529.159 30.647 526.718 28.205 523.705 28.2H330.605Z" fill="#E6E6E6"/>
<path d="M164 361.48H122.79V361.73H164V361.48Z" fill="#E0E0E0"/>
<path d="M248 359.48H206.67V359.73H248V359.48Z" fill="#E0E0E0"/>
<path d="M301.78 359.48H291.78V359.73H301.78V359.48Z" fill="#E0E0E0"/>
<path d="M201.83 368.02H155.58V368.27H201.83V368.02Z" fill="#E0E0E0"/>
<path d="M361.8 361.35H340.2V361.6H361.8V361.35Z" fill="#E0E0E0"/>
<path d="M398.63 361.35H370.7V361.6H398.63V361.35Z" fill="#E0E0E0"/>
<path d="M533.33 365.58H470.89V365.83H533.33V365.58Z" fill="#E0E0E0"/>
<path d="M569 351.67H69V351.92H569V351.67Z" fill="#E0E0E0"/>
<path d="M152.292 69.595H150.492V209.961H152.292V69.595Z" fill="#E0E0E0"/>
<path d="M264.342 69.595H262.542V209.961H264.342V69.595Z" fill="#E0E0E0"/>
<path d="M271.392 78.42H143.442L140.742 72.12H274.092L271.392 78.42Z" fill="#EBEBEB"/>
<path d="M271.392 87.069H143.442L140.742 80.769H274.092L271.392 87.069Z" fill="#EBEBEB"/>
<path d="M271.392 95.7189H143.442L140.742 89.4189H274.092L271.392 95.7189Z" fill="#EBEBEB"/>
<path d="M271.392 104.368H143.442L140.742 98.068H274.092L271.392 104.368Z" fill="#EBEBEB"/>
<path d="M271.392 113.017H143.442L140.742 106.717H274.092L271.392 113.017Z" fill="#EBEBEB"/>
<path d="M271.392 121.667H143.442L140.742 115.367H274.092L271.392 121.667Z" fill="#EBEBEB"/>
<path d="M271.392 130.316H143.442L140.742 124.016H274.092L271.392 130.316Z" fill="#EBEBEB"/>
<path d="M271.392 138.966H143.442L140.742 132.666H274.092L271.392 138.966Z" fill="#EBEBEB"/>
<path d="M271.392 147.615H143.442L140.742 141.315H274.092L271.392 147.615Z" fill="#EBEBEB"/>
<path d="M271.392 156.264H143.442L140.742 149.964H274.092L271.392 156.264Z" fill="#EBEBEB"/>
<path d="M271.392 164.914H143.442L140.742 158.614H274.092L271.392 164.914Z" fill="#EBEBEB"/>
<path d="M271.392 173.563H143.442L140.742 167.263H274.092L271.392 173.563Z" fill="#EBEBEB"/>
<path d="M271.392 182.213H143.442L140.742 175.913H274.092L271.392 182.213Z" fill="#EBEBEB"/>
<path d="M271.392 190.862H143.442L140.742 184.562H274.092L271.392 190.862Z" fill="#EBEBEB"/>
<path d="M271.392 199.511H143.442L140.742 193.211H274.092L271.392 199.511Z" fill="#EBEBEB"/>
<path d="M271.392 208.161H143.442L140.742 201.861H274.092L271.392 208.161Z" fill="#EBEBEB"/>
<path d="M274.092 208.161H140.742V211.761H274.092V208.161Z" fill="#E0E0E0"/>
<path d="M278.742 64.23H136.092V72.631H278.742V64.23Z" fill="#E0E0E0"/>
<path d="M137.557 148.79C136.755 148.79 136.106 148.14 136.106 147.339V98.345C136.106 97.543 136.756 96.894 137.557 96.894C138.358 96.894 139.008 97.544 139.008 98.345V147.339C139.008 148.14 138.358 148.79 137.557 148.79Z" fill="#E0E0E0"/>
<path d="M138.082 70.9449H137.032V100.043H138.082V70.9449Z" fill="#E0E0E0"/>
<path d="M506.862 259.734H431.055V341.329H506.862V259.734Z" fill="#E6E6E6"/>
<path d="M518.436 253.664H508.907V351.917H518.436V253.664Z" fill="#E6E6E6"/>
<path d="M449.333 266.157H443.122V296.649H449.333V266.157Z" fill="#FAFAFA"/>
<path d="M475.087 266.157H468.876V296.649H475.087V266.157Z" fill="#F5F5F5"/>
<path d="M455.546 268.3H449.334V296.649H455.546V268.3Z" fill="#F5F5F5"/>
<path d="M468.876 268.3H462.665V296.649H468.876V268.3Z" fill="#FAFAFA"/>
<path d="M462.665 266.157H458.651V296.649H462.665V266.157Z" fill="#EBEBEB"/>
<path d="M458.651 268.3H455.545V296.649H458.651V268.3Z" fill="#FAFAFA"/>
<path d="M481.298 266.157H475.087V296.649H481.298V266.157Z" fill="#EBEBEB"/>
<path d="M487.51 268.3H481.299V296.649H487.51V268.3Z" fill="#E6E6E6"/>
<path d="M500.841 268.3H494.63V296.649H500.841V268.3Z" fill="#E6E6E6"/>
<path d="M494.63 266.157H490.616V296.649H494.63V266.157Z" fill="#FAFAFA"/>
<path d="M490.616 268.3H487.51V296.649H490.616V268.3Z" fill="#EBEBEB"/>
<path d="M503.947 266.879H500.841V296.649H503.947V266.879Z" fill="#FAFAFA"/>
<path d="M497.736 337.517H503.947V307.025H497.736V337.517Z" fill="#FAFAFA"/>
<path d="M471.982 337.517H478.193V307.025H471.982V337.517Z" fill="#FAFAFA"/>
<path d="M491.524 337.517H497.735V309.168H491.524V337.517Z" fill="#F0F0F0"/>
<path d="M478.193 337.517H484.404V309.168H478.193V337.517Z" fill="#EBEBEB"/>
<path d="M484.405 337.517H488.419V307.025H484.405V337.517Z" fill="#FAFAFA"/>
<path d="M488.418 337.517H491.524V309.168H488.418V337.517Z" fill="#F5F5F5"/>
<path d="M465.771 337.517H471.982V307.025H465.771V337.517Z" fill="#EBEBEB"/>
<path d="M459.559 337.517H465.77V309.168H459.559V337.517Z" fill="#F5F5F5"/>
<path d="M446.228 337.517H452.439V309.168H446.228V337.517Z" fill="#E6E6E6"/>
<path d="M452.44 337.517H456.454V307.025H452.44V337.517Z" fill="#FAFAFA"/>
<path d="M439.109 337.517H443.123V307.025H439.109V337.517Z" fill="#FAFAFA"/>
<path d="M456.453 337.517H459.559V309.168H456.453V337.517Z" fill="#EBEBEB"/>
<path d="M443.122 337.517H446.228V307.747H443.122V337.517Z" fill="#F0F0F0"/>
<path d="M506.48 253.664H503.939H428.655V346.411H503.939V351.917H509.021V253.664H506.48ZM503.939 337.517H433.447V301.765H503.939V337.517ZM503.939 296.683H433.447V262.558H503.939V296.683Z" fill="#F0F0F0"/>
<path d="M355.125 341.328H430.932V259.733H355.125V341.328Z" fill="#E6E6E6"/>
<path d="M358.039 351.916H367.568V345.413H358.039V351.916Z" fill="#E6E6E6"/>
<path d="M422.166 296.649H428.377V266.157H422.166V296.649Z" fill="#FAFAFA"/>
<path d="M396.413 296.649H402.624V266.157H396.413V296.649Z" fill="#F5F5F5"/>
<path d="M415.955 296.649H422.167V268.3H415.955V296.649Z" fill="#F5F5F5"/>
<path d="M402.624 296.649H408.835V268.3H402.624V296.649Z" fill="#FAFAFA"/>
<path d="M408.835 296.649H412.849V266.157H408.835V296.649Z" fill="#EBEBEB"/>
<path d="M412.848 296.649H415.954V268.3H412.848V296.649Z" fill="#FAFAFA"/>
<path d="M394.296 296.649H400.507V266.157H394.296V296.649Z" fill="#EBEBEB"/>
<path d="M388.085 296.649H394.296V268.3H388.085V296.649Z" fill="#E6E6E6"/>
<path d="M374.754 296.649H380.965V268.3H374.754V296.649Z" fill="#E6E6E6"/>
<path d="M380.964 296.649H384.978V266.157H380.964V296.649Z" fill="#FAFAFA"/>
<path d="M384.978 296.649H388.084V268.3H384.978V296.649Z" fill="#EBEBEB"/>
<path d="M371.647 296.649H374.753V266.879H371.647V296.649Z" fill="#F5F5F5"/>
<path d="M374.941 307.025H368.73V337.517H374.941V307.025Z" fill="#FAFAFA"/>
<path d="M400.695 307.025H394.484V337.517H400.695V307.025Z" fill="#FAFAFA"/>
<path d="M381.153 309.168H374.942V337.517H381.153V309.168Z" fill="#F5F5F5"/>
<path d="M394.483 309.168H388.272V337.517H394.483V309.168Z" fill="#EBEBEB"/>
<path d="M388.273 307.025H384.259V337.517H388.273V307.025Z" fill="#FAFAFA"/>
<path d="M384.259 309.168H381.153V337.517H384.259V309.168Z" fill="#F5F5F5"/>
<path d="M402.811 307.025H396.6V337.517H402.811V307.025Z" fill="#EBEBEB"/>
<path d="M409.023 309.168H402.812V337.517H409.023V309.168Z" fill="#F5F5F5"/>
<path d="M422.354 309.168H416.143V337.517H422.354V309.168Z" fill="#E6E6E6"/>
<path d="M416.143 307.025H412.129V337.517H416.143V307.025Z" fill="#FAFAFA"/>
<path d="M428.655 307.025H424.641V337.517H428.655V307.025Z" fill="#FAFAFA"/>
<path d="M412.129 309.168H409.023V337.517H412.129V309.168Z" fill="#EBEBEB"/>
<path d="M425.46 307.747H422.354V337.517H425.46V307.747Z" fill="#EBEBEB"/>
<path d="M352.965 253.664V351.917H358.047V346.411H433.331V253.664H358.047H355.506H352.965ZM358.047 301.765H428.539V337.517H358.047V301.765ZM358.047 262.557H428.539V296.682H358.047V262.557Z" fill="#F0F0F0"/>
<path d="M162.654 319.415C162.654 319.415 155.376 285.019 168.631 266.388C181.886 247.756 156.651 266.173 153.748 283.614C153.748 283.614 149.398 252.43 162.256 230.489C175.114 208.548 151.057 226.564 149.013 249.17C149.013 249.17 145.074 221.349 150.982 205.715C156.89 190.081 146.612 200.134 142.661 209.934C138.71 219.734 143.894 244.002 143.894 244.002C143.894 244.002 133.583 199.129 123.823 202.7C114.063 206.271 138.415 235.672 141.793 250.966C141.793 250.966 130.284 230.384 121.553 234.668C112.822 238.953 135.076 241.084 145.266 271.774L148.846 286.163C148.846 286.163 138.256 265.85 131.331 272.258C124.406 278.666 151.863 289.726 158.243 320.512L162.654 319.415Z" fill="#EBEBEB"/>
<path d="M176.31 351.916H148.339C142.267 351.916 137.345 346.994 137.345 340.922V329.916H187.305V340.922C187.304 346.994 182.382 351.916 176.31 351.916Z" fill="#EBEBEB"/>
<path d="M189.636 336.916H135.013C132.687 336.916 130.802 335.031 130.802 332.705V321.427C130.802 319.101 132.687 317.216 135.013 317.216H189.635C191.961 317.216 193.846 319.101 193.846 321.427V332.705C193.847 335.031 191.961 336.916 189.636 336.916Z" fill="#F5F5F5"/>
<path d="M161.228 321.395C161.228 321.395 159.697 278.029 138.27 259.663C116.842 241.296 152.555 255.837 161.228 275.861C161.228 275.861 157.147 237.215 135.209 214.767C113.271 192.319 147.453 206.729 156.637 233.196C156.637 233.196 153.066 198.7 141.332 181.735C129.598 164.77 144.903 173.749 152.556 184.309C160.209 194.87 161.229 225.481 161.229 225.481C161.229 225.481 160.209 168.663 172.963 170.032C185.718 171.402 165.31 213.871 165.82 233.196C165.82 233.196 173.473 205.115 185.207 207.645C196.941 210.175 170.922 219.359 167.861 259.153V277.454C167.861 277.454 174.493 249.969 184.697 255.581C194.901 261.193 165.31 282.621 166.841 321.395H161.228Z" fill="#F5F5F5"/>
<path d="M495.52 65.218H436.02V153.903H495.52V65.218Z" fill="#EBEBEB"/>
<path d="M491.415 71.3361H440.125V147.784H491.415V71.3361Z" fill="#F5F5F5"/>
<path d="M478.049 99.2166C479.355 93.6859 475.93 88.1437 470.399 86.8378C464.868 85.5318 459.326 88.9566 458.02 94.4874C456.714 100.018 460.139 105.56 465.67 106.866C471.201 108.172 476.743 104.747 478.049 99.2166Z" fill="#E0E0E0"/>
<path d="M457.732 136.827L472.778 118.827L478.312 136.827H457.732Z" fill="#EBEBEB"/>
<path d="M450.483 84.0379C443.282 95.7639 448.491 110.324 456.671 119.887C457.928 121.356 460.042 119.226 458.792 117.766C451.487 109.226 446.617 96.0659 453.073 85.5519C454.087 83.9029 451.493 82.3939 450.483 84.0379Z" fill="#EBEBEB"/>
<path d="M480.778 76.203L475.278 81.827L480.778 86.537L485.778 81.37L480.778 76.203Z" fill="#EBEBEB"/>
<path d="M480.028 239.284H453.668L460.241 228.784H476.108V231.784H461.903L459.086 236.284H480.028V239.284Z" fill="#E0E0E0"/>
<path d="M473.472 229.817L470.507 230.273L471.425 236.248L474.391 235.792L473.472 229.817Z" fill="#E0E0E0"/>
<path d="M481.86 230.815L478.367 237.261L481.006 238.69L484.498 232.245L481.86 230.815Z" fill="#EBEBEB"/>
<path d="M497.744 233.485L481.563 233.987C480.383 234.024 479.402 233.21 479.402 232.193V231.189C479.402 230.172 480.382 229.359 481.563 229.395L497.744 229.897C498.866 229.932 499.754 230.725 499.754 231.691C499.754 232.658 498.866 233.45 497.744 233.485Z" fill="#E0E0E0"/>
<path d="M447.499 249.062L455.427 244.959V242.632L447.499 238.53V249.062Z" fill="#E6E6E6"/>
<path d="M447.499 238.53H446.401V249.061H447.499V238.53Z" fill="#E0E0E0"/>
<path d="M489.753 252.044L477.336 245.618V241.974L489.753 235.547V252.044Z" fill="#E6E6E6"/>
<path d="M491.473 235.547H489.753V252.044H491.473V235.547Z" fill="#E0E0E0"/>
<path d="M481.455 253.468H458.869C454.476 253.468 450.914 249.906 450.914 245.513V243.502C450.914 239.109 454.476 235.547 458.869 235.547H481.455V253.468Z" fill="#EBEBEB"/>
<path d="M319 390.66C426.082 390.66 512.89 385.592 512.89 379.34C512.89 373.088 426.082 368.02 319 368.02C211.917 368.02 125.11 373.088 125.11 379.34C125.11 385.592 211.917 390.66 319 390.66Z" fill="#F5F5F5"/>
<path d="M365.514 259.96H359.271L349.28 378.314C349.168 379.634 350.21 380.768 351.535 380.768C352.699 380.768 353.673 379.885 353.787 378.727L365.514 259.96Z" fill="#263238"/>
<path opacity="0.1" d="M365.514 259.96H359.271L349.28 378.314C349.168 379.634 350.21 380.768 351.535 380.768C352.699 380.768 353.673 379.885 353.787 378.727L365.514 259.96Z" fill="white"/>
<path d="M215.528 259.135H209.285L199.293 378.315C199.182 379.635 200.224 380.767 201.548 380.767C202.712 380.767 203.687 379.884 203.8 378.725L215.528 259.135Z" fill="#263238"/>
<path opacity="0.1" d="M215.528 259.135H209.285L199.293 378.315C199.182 379.635 200.224 380.767 201.548 380.767C202.712 380.767 203.687 379.884 203.8 378.725L215.528 259.135Z" fill="white"/>
<path d="M243.206 259.135H249.449L249.629 378.678C249.631 379.931 248.615 380.949 247.362 380.949C246.122 380.949 245.112 379.954 245.095 378.714L243.206 259.135Z" fill="#263238"/>
<path opacity="0.2" d="M243.206 259.135H249.449L249.629 378.678C249.631 379.931 248.615 380.949 247.362 380.949C246.122 380.949 245.112 379.954 245.095 378.714L243.206 259.135Z" fill="white"/>
<path d="M391.192 259.135H397.435L397.615 378.678C397.617 379.931 396.601 380.949 395.348 380.949C394.108 380.949 393.098 379.954 393.081 378.714L391.192 259.135Z" fill="#263238"/>
<path opacity="0.2" d="M397.436 259.135L397.616 378.678C397.618 379.931 396.602 380.949 395.349 380.949C394.109 380.949 393.099 379.954 393.082 378.714L391.193 259.135H397.436Z" fill="white"/>
<path d="M207.406 281.541L397.303 280.132V259.135H209.284L207.406 281.541Z" fill="#407BFF"/>
<path opacity="0.3" d="M243.206 259.295L243.556 281.273L207.406 281.541L209.284 259.135L243.206 259.295Z" fill="black"/>
<path d="M404.627 254.094C404.623 251.266 403.573 248.975 402.275 248.967H206.446C205.149 248.975 204.098 251.266 204.094 254.094C204.098 256.922 205.149 259.213 206.446 259.221H402.275C403.572 259.213 404.623 256.922 404.627 254.094Z" fill="#263238"/>
<path opacity="0.1" d="M404.627 254.094C404.623 251.266 403.573 248.975 402.275 248.967H206.446C205.149 248.975 204.098 251.266 204.094 254.094C204.098 256.922 205.149 259.213 206.446 259.221H402.275C403.572 259.213 404.623 256.922 404.627 254.094Z" fill="white"/>
<path opacity="0.3" d="M254.64 254.094C254.636 251.266 253.585 248.975 252.288 248.967H206.445C205.148 248.975 204.097 251.266 204.093 254.094C204.097 256.922 205.148 259.213 206.445 259.221H252.288C253.585 259.213 254.636 256.922 254.64 254.094Z" fill="black"/>
<path d="M354.276 249.489H333.71L334.185 247.256C336.378 241.351 347.624 241.351 347.624 241.351C350.409 241.51 353.134 244.119 353.91 247.769L354.276 249.489Z" fill="#407BFF"/>
<path d="M297.2 246.193H317.862L320.323 224.59H301.56L297.2 246.193Z" fill="#263238"/>
<path d="M293.554 248.934H294.531V249.178H329.578V246.193H297.2L301.561 224.59H320.324L321.364 215.426C321.31 214.178 320.269 213.192 319.021 213.192H302.945C301.687 213.192 300.656 214.178 300.593 215.426L293.554 248.934Z" fill="#263238"/>
<path d="M297.2 246.193H317.863L320.133 226.291L320.323 224.59H301.561L297.2 246.193Z" fill="#263238"/>
<path opacity="0.1" d="M319.457 231.782L320.323 224.591H298.668L297.157 231.782H319.457Z" fill="black"/>
<path d="M330.013 246.823H332.467C332.726 246.823 332.936 246.632 332.936 246.396V244.028C332.936 243.792 332.726 243.601 332.467 243.601H330.705C330.493 243.601 330.307 243.731 330.253 243.918L329.561 246.286C329.481 246.557 329.705 246.823 330.013 246.823Z" fill="#263238"/>
<path d="M326.622 246.823H329.076C329.335 246.823 329.545 246.632 329.545 246.396V244.028C329.545 243.792 329.335 243.601 329.076 243.601H327.314C327.102 243.601 326.916 243.731 326.861 243.918L326.169 246.286C326.09 246.557 326.314 246.823 326.622 246.823Z" fill="#263238"/>
<path d="M323.231 246.823H325.685C325.944 246.823 326.154 246.632 326.154 246.396V244.028C326.154 243.792 325.944 243.601 325.685 243.601H323.923C323.711 243.601 323.525 243.731 323.47 243.918L322.778 246.286C322.699 246.557 322.923 246.823 323.231 246.823Z" fill="#263238"/>
<path d="M319.84 246.823H322.294C322.553 246.823 322.762 246.632 322.762 246.396V244.028C322.762 243.792 322.552 243.601 322.294 243.601H320.532C320.32 243.601 320.134 243.731 320.079 243.918L319.387 246.286C319.308 246.557 319.532 246.823 319.84 246.823Z" fill="#263238"/>
<path d="M316.449 246.823H318.903C319.162 246.823 319.371 246.632 319.371 246.396V244.028C319.371 243.792 319.161 243.601 318.903 243.601H317.141C316.929 243.601 316.743 243.731 316.688 243.918L315.996 246.286C315.917 246.557 316.141 246.823 316.449 246.823Z" fill="#263238"/>
<path d="M313.058 246.823H315.512C315.771 246.823 315.981 246.632 315.981 246.396V244.028C315.981 243.792 315.771 243.601 315.512 243.601H313.75C313.538 243.601 313.352 243.731 313.297 243.918L312.605 246.286C312.526 246.557 312.75 246.823 313.058 246.823Z" fill="#263238"/>
<path d="M309.667 246.823H312.121C312.38 246.823 312.59 246.632 312.59 246.396V244.028C312.59 243.792 312.38 243.601 312.121 243.601H310.359C310.147 243.601 309.961 243.731 309.906 243.918L309.214 246.286C309.135 246.557 309.36 246.823 309.667 246.823Z" fill="#263238"/>
<path d="M306.276 246.823H308.73C308.989 246.823 309.198 246.632 309.198 246.396V244.028C309.198 243.792 308.988 243.601 308.73 243.601H306.968C306.756 243.601 306.57 243.731 306.515 243.918L305.823 246.286C305.744 246.557 305.969 246.823 306.276 246.823Z" fill="#263238"/>
<path d="M302.885 246.823H305.339C305.598 246.823 305.807 246.632 305.807 246.396V244.028C305.807 243.792 305.597 243.601 305.339 243.601H303.577C303.365 243.601 303.179 243.731 303.124 243.918L302.432 246.286C302.354 246.557 302.578 246.823 302.885 246.823Z" fill="#263238"/>
<path d="M299.495 246.823H301.949C302.208 246.823 302.417 246.632 302.417 246.396V244.028C302.417 243.792 302.207 243.601 301.949 243.601H300.187C299.975 243.601 299.789 243.731 299.734 243.918L299.042 246.286C298.963 246.557 299.187 246.823 299.495 246.823Z" fill="#263238"/>
<path d="M296.104 246.823H298.557C298.816 246.823 299.026 246.632 299.026 246.396V244.028C299.026 243.792 298.816 243.601 298.557 243.601H296.796C296.584 243.601 296.398 243.731 296.343 243.918L295.651 246.286C295.572 246.557 295.796 246.823 296.104 246.823Z" fill="#263238"/>
<path d="M292.713 246.823H295.167C295.426 246.823 295.636 246.632 295.636 246.396V244.028C295.636 243.792 295.426 243.601 295.167 243.601H293.405C293.193 243.601 293.007 243.731 292.952 243.918L292.26 246.286C292.181 246.557 292.405 246.823 292.713 246.823Z" fill="#263238"/>
<path d="M289.322 246.823H291.776C292.035 246.823 292.245 246.632 292.245 246.396V244.028C292.245 243.792 292.035 243.601 291.776 243.601H290.014C289.802 243.601 289.616 243.731 289.561 243.918L288.869 246.286C288.79 246.557 289.014 246.823 289.322 246.823Z" fill="#263238"/>
<path d="M285.931 246.823H288.385C288.644 246.823 288.853 246.632 288.853 246.396V244.028C288.853 243.792 288.643 243.601 288.385 243.601H286.623C286.411 243.601 286.225 243.731 286.17 243.918L285.478 246.286C285.399 246.557 285.623 246.823 285.931 246.823Z" fill="#263238"/>
<path d="M282.54 246.823H284.994C285.253 246.823 285.462 246.632 285.462 246.396V244.028C285.462 243.792 285.252 243.601 284.994 243.601H283.232C283.02 243.601 282.834 243.731 282.779 243.918L282.087 246.286C282.008 246.557 282.233 246.823 282.54 246.823Z" fill="#263238"/>
<path d="M280.071 247.08C280.071 248.111 280.993 248.944 282.113 248.944H332.883C334.013 248.944 334.925 248.112 334.925 247.08C334.925 246.564 334.697 246.094 334.33 245.759C333.973 245.433 333.477 245.225 332.932 245.216H282.112C281.914 245.216 281.725 245.243 281.547 245.288C280.695 245.515 280.071 246.229 280.071 247.08Z" fill="#263238"/>
<path opacity="0.2" d="M280.071 247.08C280.071 248.111 280.993 248.944 282.113 248.944H332.883C334.013 248.944 334.925 248.112 334.925 247.08C334.925 246.564 334.697 246.094 334.33 245.759C333.973 245.433 333.477 245.225 332.932 245.216H282.112C281.914 245.216 281.725 245.243 281.547 245.288C280.695 245.515 280.071 246.229 280.071 247.08Z" fill="white"/>
<path d="M280.071 247.08C280.071 248.111 280.993 248.944 282.113 248.944H299.304C300.127 248.7 300.722 247.994 300.722 247.162C300.722 247.044 300.712 246.936 300.692 246.827C300.613 246.447 300.414 246.103 300.117 245.841C299.988 245.723 299.839 245.624 299.681 245.533C299.602 245.497 299.522 245.461 299.443 245.425C299.195 245.334 298.937 245.289 298.66 245.289H281.549C280.695 245.515 280.071 246.229 280.071 247.08Z" fill="#263238"/>
<path d="M265.459 163.916H270.647L276.478 227.194H271.29C270.43 227.194 269.659 226.389 269.568 225.397L264.068 165.714C263.977 164.72 264.6 163.916 265.459 163.916Z" fill="#407BFF"/>
<path opacity="0.3" d="M265.459 163.916H270.647L276.478 227.194H271.29C270.43 227.194 269.659 226.389 269.568 225.397L264.068 165.714C263.977 164.72 264.6 163.916 265.459 163.916Z" fill="black"/>
<path d="M273.484 227.194H351.239C352.099 227.194 352.722 226.389 352.63 225.397L347.13 165.714C347.039 164.721 346.268 163.917 345.408 163.917H267.653C266.793 163.917 266.17 164.722 266.262 165.714L271.762 225.397C271.853 226.389 272.625 227.194 273.484 227.194Z" fill="#407BFF"/>
<path d="M275.83 214.497H346.45L342.534 169.729H271.913L275.83 214.497Z" fill="#407BFF"/>
<path d="M276.802 218.001H346.393C348.367 218.001 349.828 216.401 349.655 214.426L345.763 169.937C345.59 167.963 343.85 166.362 341.875 166.362H272.284C270.31 166.362 268.849 167.962 269.022 169.937L272.914 214.426C273.087 216.4 274.827 218.001 276.802 218.001Z" fill="#263238"/>
<path d="M275.83 214.497H346.45L342.534 169.729H271.913L275.83 214.497Z" fill="#407BFF"/>
<path opacity="0.4" d="M275.83 214.497H346.45L342.534 169.729H271.913L275.83 214.497Z" fill="white"/>
<path d="M298.952 172.179L302.364 211.175H276.475L273.063 172.179H298.952ZM299.868 171.179H298.952H273.063H271.972L272.067 172.266L275.479 211.262L275.559 212.175H276.475H302.364H303.455L303.36 211.088L299.948 172.092L299.868 171.179Z" fill="#407BFF"/>
<path d="M302.364 211.176H276.475L273.063 172.179H298.952L302.364 211.176Z" fill="white"/>
<path d="M284.085 184.1H276.213L275.346 174.201H283.219L284.085 184.1Z" fill="#407BFF"/>
<g opacity="0.2">
<path d="M276.28 174.201V174.2H275.602V174.201H275.346L276.018 181.879H276.274L276.225 181.321H276.903L276.952 181.879H277.208L276.536 174.201H276.28ZM275.963 178.319L275.865 177.202H276.542L276.64 178.319H275.963ZM276.663 178.575L276.761 179.692H276.084L275.986 178.575H276.663ZM275.843 176.946L275.745 175.829H276.422L276.52 176.946H275.843ZM275.723 175.573L275.625 174.456H276.302L276.4 175.573H275.723ZM276.203 181.064L276.105 179.947H276.782L276.88 181.064H276.203Z" fill="black"/>
</g>
<g opacity="0.2">
<path d="M282.963 174.201V174.2H282.286V174.201H282.03L282.702 181.879H282.958L282.909 181.321H283.586L283.635 181.879H283.891L283.219 174.201H282.963ZM282.646 178.319L282.548 177.202H283.225L283.323 178.319H282.646ZM283.346 178.575L283.444 179.692H282.767L282.669 178.575H283.346ZM282.526 176.946L282.428 175.829H283.105L283.203 176.946H282.526ZM282.406 175.573L282.308 174.456H282.985L283.083 175.573H282.406ZM282.886 181.064L282.788 179.947H283.465L283.563 181.064H282.886Z" fill="black"/>
</g>
<path opacity="0.2" d="M282.7 181.869L277.208 181.879L276.536 174.201H282.029L282.7 181.869Z" fill="white"/>
<path opacity="0.2" d="M281.901 178.141C282.011 179.396 281.082 180.414 279.827 180.414C278.572 180.414 277.465 179.396 277.355 178.141C277.245 176.886 278.174 175.868 279.429 175.868C280.684 175.868 281.791 176.886 281.901 178.141Z" fill="white"/>
<path d="M278.912 176.952L280.915 178.267L279.142 179.581L278.912 176.952Z" fill="white"/>
<path d="M285.17 196.504H277.298L276.432 186.605H284.304L285.17 196.504Z" fill="#407BFF"/>
<g opacity="0.2">
<path d="M277.365 186.605V186.604H276.688V186.605H276.432L277.104 194.283H277.36L277.311 193.725H277.988L278.037 194.283H278.293L277.621 186.605H277.365ZM277.048 190.722L276.95 189.605H277.628L277.726 190.722H277.048ZM277.748 190.978L277.846 192.095H277.169L277.071 190.978H277.748ZM276.928 189.349L276.83 188.232H277.507L277.605 189.349H276.928ZM276.808 187.977L276.71 186.86H277.387L277.485 187.977H276.808ZM277.288 193.468L277.19 192.351H277.868L277.966 193.468H277.288Z" fill="black"/>
</g>
<g opacity="0.2">
<path d="M284.048 186.605V186.604H283.371V186.605H283.115L283.787 194.283H284.043L283.994 193.725H284.672L284.721 194.283H284.977L284.305 186.605H284.048ZM283.731 190.722L283.633 189.605H284.31L284.408 190.722H283.731ZM284.431 190.978L284.529 192.095H283.851L283.753 190.978H284.431ZM283.611 189.349L283.513 188.232H284.19L284.288 189.349H283.611ZM283.491 187.977L283.393 186.86H284.07L284.168 187.977H283.491ZM283.971 193.468L283.873 192.351H284.55L284.648 193.468H283.971Z" fill="black"/>
</g>
<path opacity="0.2" d="M283.785 194.273L278.293 194.282L277.621 186.605H283.115L283.785 194.273Z" fill="white"/>
<path opacity="0.2" d="M282.986 190.545C283.096 191.8 282.167 192.818 280.912 192.818C279.657 192.818 278.55 191.8 278.44 190.545C278.33 189.29 279.259 188.272 280.514 188.272C281.769 188.272 282.876 189.29 282.986 190.545Z" fill="white"/>
<path d="M279.997 189.356L282 190.67L280.227 191.985L279.997 189.356Z" fill="white"/>
<path d="M294.412 184.101H286.54L285.674 174.202H293.546L294.412 184.101Z" fill="#407BFF"/>
<g opacity="0.2">
<path d="M286.607 174.202V174.201H285.929V174.202H285.673L286.345 181.88H286.601L286.552 181.322H287.229L287.278 181.88H287.534L286.862 174.202H286.607ZM286.29 178.319L286.192 177.202H286.87L286.968 178.319H286.29ZM286.99 178.575L287.088 179.692H286.411L286.313 178.575H286.99ZM286.17 176.946L286.072 175.829H286.75L286.848 176.946H286.17ZM286.05 175.574L285.952 174.457H286.63L286.728 175.574H286.05ZM286.53 181.065L286.432 179.948H287.11L287.208 181.065H286.53Z" fill="black"/>
</g>
<g opacity="0.2">
<path d="M293.29 174.202V174.201H292.613V174.202H292.357L293.029 181.88H293.285L293.236 181.322H293.913L293.962 181.88H294.218L293.546 174.202H293.29ZM292.973 178.319L292.875 177.202H293.552L293.65 178.319H292.973ZM293.673 178.575L293.771 179.692H293.093L292.995 178.575H293.673ZM292.853 176.946L292.755 175.829H293.432L293.53 176.946H292.853ZM292.733 175.574L292.635 174.457H293.312L293.41 175.574H292.733ZM293.213 181.065L293.115 179.948H293.792L293.89 181.065H293.213Z" fill="black"/>
</g>
<path opacity="0.2" d="M293.027 181.87L287.535 181.879L286.863 174.202H292.357L293.027 181.87Z" fill="white"/>
<path opacity="0.2" d="M292.228 178.142C292.338 179.397 291.409 180.415 290.154 180.415C288.899 180.415 287.792 179.397 287.682 178.142C287.572 176.887 288.501 175.869 289.756 175.869C291.011 175.869 292.118 176.887 292.228 178.142Z" fill="white"/>
<path d="M289.239 176.953L291.242 178.267L289.469 179.582L289.239 176.953Z" fill="white"/>
<path d="M286.256 208.907H278.383L277.517 199.008H285.389L286.256 208.907Z" fill="#407BFF"/>
<g opacity="0.2">
<path d="M278.45 199.008L277.772 199.007V199.008H277.516L278.188 206.686H278.444L278.395 206.128H279.072L279.121 206.686H279.377L278.705 199.008H278.45ZM278.133 203.126L278.035 202.009H278.712L278.81 203.126H278.133ZM278.833 203.382L278.931 204.499H278.254L278.156 203.382H278.833ZM278.013 201.753L277.915 200.636H278.592L278.69 201.753H278.013ZM277.893 200.381L277.795 199.264H278.472L278.57 200.381H277.893ZM278.373 205.872L278.275 204.755H278.952L279.05 205.872H278.373Z" fill="black"/>
</g>
<g opacity="0.2">
<path d="M285.133 199.008L284.455 199.007V199.008H284.2L284.872 206.686H285.128L285.079 206.128H285.756L285.805 206.686H286.061L285.389 199.008H285.133ZM284.816 203.126L284.718 202.009H285.395L285.493 203.126H284.816ZM285.516 203.382L285.614 204.499H284.937L284.839 203.382H285.516ZM284.696 201.753L284.598 200.636H285.275L285.373 201.753H284.696ZM284.576 200.381L284.478 199.264H285.155L285.253 200.381H284.576ZM285.056 205.872L284.958 204.755H285.635L285.733 205.872H285.056Z" fill="black"/>
</g>
<path opacity="0.2" d="M284.871 206.676L279.378 206.686L278.707 199.008H284.2L284.871 206.676Z" fill="white"/>
<path opacity="0.2" d="M284.071 202.949C284.181 204.204 283.252 205.222 281.997 205.222C280.742 205.222 279.635 204.204 279.525 202.949C279.415 201.694 280.344 200.676 281.599 200.676C282.854 200.676 283.961 201.693 284.071 202.949Z" fill="white"/>
<path d="M281.083 201.76L283.085 203.074L281.313 204.388L281.083 201.76Z" fill="white"/>
<path d="M335.98 172L339.392 210.996H313.503L310.091 172H335.98ZM336.896 171H335.98H310.091H309L309.095 172.087L312.507 211.083L312.587 211.996H313.503H339.392H340.483L340.388 210.909L336.976 171.913L336.896 171Z" fill="#407BFF"/>
<path d="M339.392 210.997H313.503L310.091 172H335.98L339.392 210.997Z" fill="white"/>
<path d="M321.113 183.921H313.241L312.374 174.022H320.247L321.113 183.921Z" fill="#407BFF"/>
<g opacity="0.2">
<path d="M313.308 174.022V174.021H312.63V174.022H312.374L313.046 181.7H313.302L313.253 181.142H313.931L313.98 181.7H314.236L313.564 174.022H313.308ZM312.991 178.14L312.893 177.023H313.57L313.668 178.14H312.991ZM313.691 178.396L313.789 179.513H313.112L313.014 178.396H313.691ZM312.871 176.767L312.773 175.65H313.45L313.548 176.767H312.871ZM312.751 175.394L312.653 174.277H313.33L313.428 175.394H312.751ZM313.231 180.885L313.133 179.768H313.81L313.908 180.885H313.231Z" fill="black"/>
</g>
<g opacity="0.2">
<path d="M319.991 174.022V174.021H319.314V174.022H319.058L319.73 181.7H319.986L319.937 181.142H320.614L320.663 181.7H320.919L320.247 174.022H319.991ZM319.674 178.14L319.576 177.023H320.253L320.351 178.14H319.674ZM320.374 178.396L320.472 179.513H319.795L319.697 178.396H320.374ZM319.554 176.767L319.456 175.65H320.133L320.231 176.767H319.554ZM319.434 175.394L319.336 174.277H320.013L320.111 175.394H319.434ZM319.914 180.885L319.816 179.768H320.493L320.591 180.885H319.914Z" fill="black"/>
</g>
<path opacity="0.2" d="M319.728 181.69L314.236 181.7L313.564 174.022H319.057L319.728 181.69Z" fill="white"/>
<path opacity="0.2" d="M318.929 177.962C319.039 179.217 318.11 180.235 316.855 180.235C315.6 180.235 314.493 179.217 314.383 177.962C314.273 176.707 315.202 175.689 316.457 175.689C317.712 175.689 318.819 176.707 318.929 177.962Z" fill="white"/>
<path d="M315.94 176.773L317.943 178.088L316.17 179.402L315.94 176.773Z" fill="white"/>
<path d="M322.198 196.325H314.326L313.46 186.426H321.332L322.198 196.325Z" fill="#407BFF"/>
<g opacity="0.2">
<path d="M314.393 186.426V186.425H313.716V186.426H313.46L314.132 194.104H314.388L314.339 193.546H315.016L315.065 194.104H315.321L314.649 186.426H314.393ZM314.076 190.543L313.978 189.426H314.656L314.754 190.543H314.076ZM314.776 190.799L314.874 191.916H314.197L314.099 190.799H314.776ZM313.956 189.17L313.858 188.053H314.535L314.633 189.17H313.956ZM313.836 187.798L313.738 186.681H314.415L314.513 187.798H313.836ZM314.316 193.289L314.218 192.172H314.896L314.994 193.289H314.316Z" fill="black"/>
</g>
<g opacity="0.2">
<path d="M321.076 186.426V186.425H320.399V186.426H320.143L320.815 194.104H321.071L321.022 193.546H321.7L321.749 194.104H322.005L321.333 186.426H321.076ZM320.759 190.543L320.661 189.426H321.338L321.436 190.543H320.759ZM321.459 190.799L321.557 191.916H320.879L320.781 190.799H321.459ZM320.639 189.17L320.541 188.053H321.218L321.316 189.17H320.639ZM320.519 187.798L320.421 186.681H321.098L321.196 187.798H320.519ZM320.999 193.289L320.901 192.172H321.578L321.676 193.289H320.999Z" fill="black"/>
</g>
<path opacity="0.2" d="M320.813 194.094L315.321 194.103L314.649 186.426H320.143L320.813 194.094Z" fill="white"/>
<path opacity="0.2" d="M320.014 190.366C320.124 191.621 319.195 192.639 317.94 192.639C316.685 192.639 315.578 191.621 315.468 190.366C315.358 189.111 316.287 188.093 317.542 188.093C318.797 188.093 319.904 189.111 320.014 190.366Z" fill="white"/>
<path d="M317.025 189.177L319.028 190.491L317.255 191.806L317.025 189.177Z" fill="white"/>
<path d="M331.44 183.922H323.568L322.702 174.023H330.574L331.44 183.922Z" fill="#407BFF"/>
<g opacity="0.2">
<path d="M323.635 174.023V174.022H322.957V174.023H322.701L323.373 181.701H323.629L323.58 181.143H324.257L324.306 181.701H324.562L323.89 174.023H323.635ZM323.318 178.14L323.22 177.023H323.898L323.996 178.14H323.318ZM324.018 178.396L324.116 179.513H323.439L323.341 178.396H324.018ZM323.198 176.767L323.1 175.65H323.778L323.876 176.767H323.198ZM323.078 175.395L322.98 174.278H323.658L323.756 175.395H323.078ZM323.558 180.886L323.46 179.769H324.138L324.236 180.886H323.558Z" fill="black"/>
</g>
<g opacity="0.2">
<path d="M330.318 174.023V174.022H329.641V174.023H329.385L330.057 181.701H330.313L330.264 181.143H330.941L330.99 181.701H331.246L330.574 174.023H330.318ZM330.001 178.14L329.903 177.023H330.58L330.678 178.14H330.001ZM330.701 178.396L330.799 179.513H330.121L330.023 178.396H330.701ZM329.881 176.767L329.783 175.65H330.46L330.558 176.767H329.881ZM329.761 175.395L329.663 174.278H330.34L330.438 175.395H329.761ZM330.241 180.886L330.143 179.769H330.82L330.918 180.886H330.241Z" fill="black"/>
</g>
<path opacity="0.2" d="M330.055 181.691L324.563 181.7L323.891 174.023H329.385L330.055 181.691Z" fill="white"/>
<path opacity="0.2" d="M329.256 177.963C329.366 179.218 328.437 180.236 327.182 180.236C325.927 180.236 324.82 179.218 324.71 177.963C324.6 176.708 325.529 175.69 326.784 175.69C328.039 175.69 329.146 176.708 329.256 177.963Z" fill="white"/>
<path d="M326.267 176.774L328.27 178.088L326.497 179.403L326.267 176.774Z" fill="white"/>
<path d="M323.284 208.728H315.411L314.545 198.829H322.417L323.284 208.728Z" fill="#407BFF"/>
<g opacity="0.2">
<path d="M315.478 198.829L314.8 198.828V198.829H314.544L315.216 206.507H315.472L315.423 205.949H316.1L316.149 206.507H316.405L315.733 198.829H315.478ZM315.161 202.947L315.063 201.83H315.74L315.838 202.947H315.161ZM315.861 203.203L315.959 204.32H315.282L315.184 203.203H315.861ZM315.041 201.574L314.943 200.457H315.62L315.718 201.574H315.041ZM314.921 200.202L314.823 199.085H315.5L315.598 200.202H314.921ZM315.401 205.693L315.303 204.576H315.98L316.078 205.693H315.401Z" fill="black"/>
</g>
<g opacity="0.2">
<path d="M322.161 198.829L321.483 198.828V198.829H321.228L321.9 206.507H322.156L322.107 205.949H322.784L322.833 206.507H323.089L322.417 198.829H322.161ZM321.844 202.947L321.746 201.83H322.423L322.521 202.947H321.844ZM322.544 203.203L322.642 204.32H321.965L321.867 203.203H322.544ZM321.724 201.574L321.626 200.457H322.303L322.401 201.574H321.724ZM321.604 200.202L321.506 199.085H322.183L322.281 200.202H321.604ZM322.084 205.693L321.986 204.576H322.663L322.761 205.693H322.084Z" fill="black"/>
</g>
<path opacity="0.2" d="M321.899 206.497L316.406 206.507L315.735 198.829H321.228L321.899 206.497Z" fill="white"/>
<path opacity="0.2" d="M321.099 202.77C321.209 204.025 320.28 205.043 319.025 205.043C317.77 205.043 316.663 204.025 316.553 202.77C316.443 201.515 317.372 200.497 318.627 200.497C319.882 200.497 320.989 201.514 321.099 202.77Z" fill="white"/>
<path d="M318.111 201.581L320.113 202.895L318.341 204.209L318.111 201.581Z" fill="white"/>
<path opacity="0.1" d="M296.15 166.386L282.355 217.978H286.996L300.637 166.386H296.15Z" fill="white"/>
<path opacity="0.1" d="M303.311 166.386L289.517 217.978H298.721L312.363 166.386H303.311Z" fill="white"/>
<path d="M258.12 248.967H232.475L225.775 172.379H251.419L258.12 248.967Z" fill="#407BFF"/>
<path opacity="0.3" d="M258.12 248.967H232.475L225.775 172.379H251.419L258.12 248.967Z" fill="black"/>
<path d="M260.637 248.967H234.992L228.292 172.379H253.937L260.637 248.967Z" fill="#407BFF"/>
<path opacity="0.5" d="M241.94 178.271C236.55 178.271 232.563 182.64 233.035 188.03C233.507 193.42 238.258 197.789 243.648 197.789C249.038 197.789 253.025 193.42 252.553 188.03C252.081 182.641 247.33 178.271 241.94 178.271Z" fill="black"/>
<path d="M240.145 188.693C240.279 190.227 241.631 191.47 243.165 191.47C244.699 191.47 245.833 190.227 245.699 188.693C245.565 187.159 244.213 185.916 242.679 185.916C241.145 185.916 240.011 187.159 240.145 188.693Z" fill="#407BFF"/>
<path opacity="0.5" d="M239.767 207.067C239.997 209.697 242.316 211.829 244.946 211.829C247.576 211.829 249.522 209.697 249.292 207.067C249.062 204.437 246.743 202.304 244.113 202.304C241.483 202.305 239.537 204.437 239.767 207.067Z" fill="black"/>
<path opacity="0.5" d="M241.455 219.261C241.654 221.535 243.659 223.379 245.933 223.379C248.207 223.379 249.889 221.535 249.69 219.261C249.491 216.987 247.486 215.144 245.212 215.144C242.939 215.144 241.257 216.987 241.455 219.261Z" fill="black"/>
<path opacity="0.5" d="M243.059 230.49C243.227 232.408 244.918 233.962 246.835 233.962C248.753 233.962 250.171 232.407 250.004 230.49C249.836 228.572 248.146 227.018 246.228 227.018C244.31 227.017 242.892 228.572 243.059 230.49Z" fill="black"/>
<path opacity="0.5" d="M244.494 239.785C244.631 241.346 246.007 242.612 247.569 242.612C249.13 242.612 250.286 241.346 250.149 239.785C250.012 238.224 248.636 236.958 247.074 236.958C245.513 236.958 244.358 238.224 244.494 239.785Z" fill="black"/>
<path d="M388.67 248.87H363.025L356.325 172.282H381.969L388.67 248.87Z" fill="#407BFF"/>
<path opacity="0.3" d="M388.67 248.87H363.025L356.325 172.282H381.969L388.67 248.87Z" fill="black"/>
<path d="M391.187 248.87H365.542L358.842 172.282H384.487L391.187 248.87Z" fill="#407BFF"/>
<path opacity="0.5" d="M372.49 178.174C367.1 178.174 363.113 182.543 363.585 187.933C364.056 193.323 368.808 197.692 374.198 197.692C379.588 197.692 383.575 193.323 383.104 187.933C382.631 182.544 377.88 178.174 372.49 178.174Z" fill="black"/>
<path d="M370.695 188.596C370.829 190.13 372.181 191.373 373.715 191.373C375.249 191.373 376.383 190.13 376.249 188.596C376.115 187.062 374.763 185.819 373.229 185.819C371.695 185.819 370.561 187.062 370.695 188.596Z" fill="#407BFF"/>
<path opacity="0.5" d="M370.317 206.97C370.547 209.6 372.866 211.732 375.496 211.732C378.126 211.732 380.072 209.6 379.842 206.97C379.612 204.34 377.293 202.207 374.663 202.207C372.033 202.207 370.087 204.34 370.317 206.97Z" fill="black"/>
<path opacity="0.5" d="M372.006 219.164C372.205 221.438 374.21 223.281 376.484 223.281C378.758 223.281 380.44 221.438 380.241 219.164C380.042 216.89 378.037 215.046 375.763 215.046C373.489 215.047 371.807 216.89 372.006 219.164Z" fill="black"/>
<path opacity="0.5" d="M373.609 230.392C373.777 232.31 375.468 233.864 377.385 233.864C379.303 233.864 380.721 232.309 380.554 230.392C380.386 228.474 378.696 226.92 376.778 226.92C374.86 226.92 373.442 228.475 373.609 230.392Z" fill="black"/>
<path opacity="0.5" d="M375.044 239.688C375.181 241.25 376.557 242.515 378.119 242.515C379.68 242.515 380.835 241.249 380.699 239.688C380.562 238.127 379.186 236.861 377.624 236.861C376.063 236.861 374.908 238.127 375.044 239.688Z" fill="black"/>
<path d="M184.28 149.559L179.615 72.161C179.608 72.06 179.604 71.958 179.605 71.857C179.623 69.808 181.299 68.161 183.348 68.179L389.543 67.707C391.769 67.744 393.601 69.47 393.771 71.69L398.436 149.088C398.444 149.193 398.447 149.297 398.446 149.402C398.424 151.45 396.747 153.092 394.699 153.07L188.504 153.542C186.278 153.508 184.445 151.78 184.28 149.559Z" fill="white"/>
<path d="M260.837 68.572H204.237L204.196 68.143L260.786 68L260.837 68.572Z" fill="white"/>
<path d="M398.449 149.4C398.428 151.444 396.753 153.089 394.699 153.068L188.502 153.538C186.274 153.507 184.445 151.78 184.282 149.563L179.612 72.158C179.612 72.056 179.602 71.954 179.602 71.851C179.623 69.807 181.298 68.162 183.352 68.172L199.197 68.141L198.88 64.452C198.584 61.09 201.067 58.3719 204.429 58.3719H248.859C252.221 58.3719 255.184 61.09 255.47 64.452L255.787 67.9979L389.549 67.702C391.766 67.743 393.606 69.47 393.769 71.687L398.439 149.082C398.449 149.196 398.449 149.298 398.449 149.4Z" fill="white"/>
<path d="M248.858 58.374C252.22 58.374 255.183 61.092 255.469 64.454L255.786 68L389.548 67.704C391.765 67.745 393.605 69.472 393.768 71.689L398.438 149.084C398.448 149.196 398.448 149.299 398.448 149.401C398.428 151.432 396.772 153.07 394.736 153.07C394.723 153.07 394.711 153.07 394.698 153.07L188.501 153.54C186.273 153.509 184.444 151.782 184.281 149.565L179.611 72.16C179.611 72.058 179.601 71.956 179.601 71.853C179.621 69.816 181.287 68.174 183.332 68.174C183.338 68.174 183.345 68.174 183.351 68.174L199.196 68.143L198.879 64.454C198.583 61.092 201.066 58.374 204.428 58.374H248.858ZM248.858 55.308H204.428C201.935 55.308 199.661 56.291 198.026 58.076C196.387 59.866 195.605 62.227 195.825 64.722L195.856 65.084L183.344 65.107C179.621 65.107 176.573 68.119 176.536 71.821C176.536 71.954 176.54 72.056 176.545 72.158V72.25L176.552 72.342L181.222 149.747C181.507 153.62 184.618 156.55 188.46 156.603L394.706 156.133C398.437 156.133 401.477 153.126 401.514 149.43C401.514 149.228 401.511 149.051 401.496 148.863L396.828 71.504C396.544 67.643 393.439 64.709 389.604 64.638L389.572 64.637H389.54L258.589 64.926L258.522 64.18C258.1 59.211 253.854 55.308 248.858 55.308Z" fill="#407BFF"/>
<path d="M370.737 172.844C370.204 174.764 369.416 176.603 368.394 178.314C369.537 179.16 371.282 178.477 371.282 178.477L370.737 172.844Z" fill="#A02724"/>
<path d="M392.854 178.641L388.095 183.608L381.598 190.381C382.132 191.166 382.517 192.043 382.733 192.968C383.312 194.996 383.808 196.485 379.408 198.46C378.448 198.851 377.804 199.767 377.762 200.803C377.77 202.054 378.744 203.413 383.101 203.489C387.307 203.47 391.396 202.108 394.774 199.602C396.434 198.426 396.268 197.347 395.232 195.637C392.167 190.797 392.245 184.009 392.854 178.641Z" fill="#FF8B7B"/>
<path d="M369.195 172.513C369.142 173.182 369.381 173.746 369.728 173.773C370.075 173.8 370.399 173.28 370.451 172.611C370.503 171.942 370.265 171.378 369.918 171.351C369.571 171.325 369.248 171.845 369.195 172.513Z" fill="#263238"/>
<path d="M369.79 168.774C371.272 168.558 372.847 169.169 373.796 170.326" stroke="#263238" stroke-miterlimit="10" stroke-linecap="round" stroke-linejoin="round"/>
<path d="M370.687 181.571C371.728 185.399 374.493 188.259 377.787 189.607C378.962 190.087 380.197 190.376 381.455 190.444C384.357 190.597 387.317 189.584 389.668 187.096C393.799 182.713 393.526 177.764 393.799 169.341C393.867 167.634 393.56 165.931 392.907 164.357C390.411 158.383 383.556 155.564 377.576 158.049C369.434 161.505 368.655 174.026 370.687 181.571Z" fill="#FF8B7B"/>
<path opacity="0.2" d="M377.787 189.606C378.962 190.086 380.197 190.375 381.455 190.443L381.598 190.383L380.798 188.819C380.798 188.819 380.307 190.153 377.787 189.606Z" fill="black"/>
<path d="M397.158 174.794C396.26 177.838 395.032 180.939 392.733 183.123C391.883 183.935 384.539 184.679 384.539 184.679C384.191 182.196 379.635 174.226 377.645 171.627C377.374 172.873 376.907 178.226 376.492 179.405C375.661 179.386 374.354 178.121 374.354 178.121C375.693 174.655 376.01 170.879 375.312 167.23L375.023 165.723C374.994 166.042 370.172 168.321 367.814 163.916C359.002 147.423 381.602 150.35 387.872 156.785C389.891 155.751 392.452 156.225 394.259 157.577C396.075 158.939 397.187 161.055 397.766 163.239C398.762 167.016 398.259 171.045 397.158 174.794Z" fill="#263238"/>
<path d="M390.503 153.12C389.34 153.016 388.216 153.852 387.794 154.94C387.541 155.592 387.295 157.157 388.022 157.494C388.831 155.985 389.372 154.468 390.503 153.12Z" fill="#263238"/>
<path d="M383.277 173.83C382.892 175.688 381.835 177.339 380.309 178.467C378.338 179.894 376.351 177.871 376.368 175.474C376.387 173.326 377.798 170.356 380.036 169.883C382.274 169.409 383.743 171.53 383.277 173.83Z" fill="#FF8B7B"/>
<path d="M343.64 368.662L335.473 366.23L337.951 346.931L347.997 350.507L343.64 368.662Z" fill="#FF8B7B"/>
<path opacity="0.2" d="M349.127 345.126L338.525 341.184L336.928 355.063L346.34 357.7L349.127 345.126Z" fill="black"/>
<path d="M334.778 364.847L344.086 367.374C344.415 367.446 344.629 367.815 344.569 368.206L343.16 377.075C342.95 378.027 342.138 378.625 341.331 378.424C338.108 377.48 336.598 376.842 332.508 375.731C329.987 375.049 324.233 373.41 320.708 372.764C317.182 372.118 317.899 367.991 319.449 367.886C326.418 367.455 330.419 366.617 333.219 365.07C333.707 364.794 334.256 364.716 334.778 364.847Z" fill="#263238"/>
<path d="M330.43 366.168C331.166 366.32 331.916 366.395 332.667 366.392C332.744 366.396 332.815 366.352 332.844 366.28C332.887 366.217 332.892 366.135 332.859 366.067C332.64 365.815 330.662 363.66 329.559 363.809C329.3 363.835 329.077 364.001 328.977 364.241C328.772 364.587 328.768 365.016 328.966 365.367C329.339 365.804 329.86 366.089 330.43 366.168ZM332.256 365.991C330.698 365.882 329.612 365.626 329.319 365.144C329.204 364.914 329.223 364.639 329.369 364.427C329.414 364.307 329.518 364.22 329.644 364.198C330.225 364.115 331.437 365.145 332.256 365.991Z" fill="#407BFF"/>
<path d="M332.679 366.393C332.679 366.393 332.735 366.397 332.769 366.399C332.836 366.378 332.889 366.328 332.914 366.262C332.921 366.161 333.704 363.817 333.054 362.814C332.895 362.543 332.612 362.367 332.298 362.344C331.956 362.27 331.607 362.442 331.458 362.758C331.048 363.619 331.875 365.648 332.582 366.34C332.605 366.37 332.641 366.389 332.679 366.393ZM332.347 362.753C332.504 362.79 332.639 362.889 332.722 363.027C332.989 363.934 332.957 364.904 332.63 365.792C332.004 364.976 331.713 363.953 331.816 362.93C331.824 362.818 331.956 362.703 332.247 362.735L332.347 362.753Z" fill="#407BFF"/>
<path d="M385.03 264.059C385.03 264.059 339.325 263.913 337.84 289.15C336.392 306.891 335.473 314.164 336.354 352.809L348.524 353.481C348.524 353.481 360.904 311.654 359.235 295.037C372.871 295.037 404.09 296.234 408.625 283.929C410.877 277.681 411.973 271.076 411.858 264.435L385.03 264.059Z" fill="#407BFF"/>
<g opacity="0.3">
<path d="M385.03 264.059C385.03 264.059 339.325 263.913 337.84 289.15C336.392 306.891 335.473 314.164 336.354 352.809L348.524 353.481C348.524 353.481 360.904 311.654 359.235 295.037C372.871 295.037 404.09 296.234 408.625 283.929C410.877 277.681 411.973 271.076 411.858 264.435L385.03 264.059Z" fill="black"/>
</g>
<path d="M350.459 355.836L334.556 353.115L334.816 346.08L351.28 349.737L350.459 355.836Z" fill="#407BFF"/>
<path d="M312.092 371.191L304.392 367.541L309.785 348.847L319.168 353.914L312.092 371.191Z" fill="#FF8B7B"/>
<path opacity="0.2" d="M321.105 348.768L311.228 343.254L307.533 356.728L316.432 360.769L321.105 348.768Z" fill="black"/>
<path d="M303.915 366.068L312.729 369.985C313.043 370.106 313.198 370.503 313.079 370.881L310.334 379.431C309.981 380.339 309.088 380.807 308.321 380.485C305.279 379.061 303.885 378.2 300.012 376.478C297.625 375.42 292.188 372.922 288.802 371.746C285.416 370.57 286.754 366.6 288.302 366.734C295.255 367.371 299.337 367.154 302.341 366.052C302.865 365.853 303.419 365.859 303.915 366.068Z" fill="#263238"/>
<path d="M299.417 366.711C300.121 366.974 300.851 367.162 301.594 367.274C301.669 367.29 301.746 367.257 301.786 367.191C301.838 367.135 301.856 367.056 301.833 366.983C301.655 366.701 300.028 364.269 298.916 364.248C298.656 364.234 298.41 364.364 298.275 364.586C298.02 364.897 297.95 365.321 298.092 365.697C298.394 366.185 298.866 366.546 299.417 366.711ZM301.249 366.815C299.726 366.47 298.692 366.051 298.475 365.529C298.397 365.284 298.457 365.015 298.634 364.827C298.696 364.716 298.813 364.646 298.941 364.643C299.527 364.65 300.568 365.854 301.249 366.815Z" fill="#407BFF"/>
<path d="M301.605 367.276C301.605 367.276 301.66 367.288 301.693 367.296C301.762 367.286 301.823 367.244 301.857 367.183C301.88 367.084 303.011 364.887 302.521 363.796C302.405 363.504 302.153 363.287 301.846 363.217C301.519 363.092 301.149 363.208 300.953 363.498C300.417 364.287 300.925 366.418 301.517 367.209C301.536 367.243 301.568 367.266 301.605 367.276ZM301.833 363.629C301.982 363.689 302.101 363.808 302.162 363.957C302.287 364.895 302.108 365.848 301.649 366.675C301.155 365.774 301.023 364.718 301.281 363.723C301.306 363.613 301.454 363.52 301.736 363.596L301.833 363.629Z" fill="#407BFF"/>
<path d="M370.631 264.059C370.313 264.059 319.72 259.135 316.329 287.895C310.96 323.117 307.576 352.809 307.576 352.809L318.232 358.088C318.232 358.088 336.788 320.504 336.508 296.928C351.34 292.672 389.71 299.823 394.246 287.529C397.962 277.473 395.954 264.059 395.954 264.059H370.631Z" fill="#407BFF"/>
<path opacity="0.3" d="M370.631 264.059C370.313 264.059 319.72 259.135 316.329 287.895C310.96 323.117 307.576 352.809 307.576 352.809L318.232 358.088C318.232 358.088 336.788 320.504 336.508 296.928C351.34 292.672 389.71 299.823 394.246 287.529C397.962 277.473 395.954 264.059 395.954 264.059H370.631Z" fill="black"/>
<path d="M319.935 359.619L305.653 353.192L306.801 347.344L321.865 352.545L319.935 359.619Z" fill="#407BFF"/>
<path d="M395.09 201.571C396.236 204.733 397.141 207.758 398.037 210.898C398.933 214.038 399.694 217.167 400.371 220.365C401.048 223.564 401.594 226.828 401.966 230.193C402.387 233.693 402.44 237.227 402.122 240.737C401.929 242.798 401.441 244.82 400.673 246.741C400.193 247.918 399.551 249.022 398.766 250.022C398.311 250.588 397.801 251.108 397.244 251.573L396.795 251.94C396.547 252.112 396.279 252.301 396.024 252.444C395.594 252.686 395.142 252.887 394.673 253.042C393.98 253.278 393.265 253.439 392.538 253.522C391.966 253.592 391.391 253.625 390.814 253.622C389.832 253.597 388.853 253.511 387.882 253.364C386.155 253.128 384.444 252.784 382.761 252.331C376.482 250.609 370.389 248.268 364.573 245.343L366.434 240.169C372.474 241.437 378.635 242.765 384.485 243.551C385.946 243.68 387.363 243.872 388.696 243.922C389.29 243.943 389.884 243.921 390.475 243.856C390.963 243.812 391.392 243.675 391.247 243.672C391.149 243.696 391.054 243.733 390.966 243.783C390.864 243.832 390.768 243.892 390.679 243.961C390.679 243.961 390.734 243.888 390.78 243.805C390.929 243.541 391.051 243.263 391.144 242.975C391.452 241.938 391.634 240.868 391.686 239.787C391.787 237.021 391.619 234.252 391.184 231.518C390.784 228.576 390.186 225.695 389.514 222.759C388.843 219.823 388.094 216.879 387.249 213.937C386.404 210.995 385.502 208.038 384.604 205.256L395.09 201.571Z" fill="#FF8B7B"/>
<path d="M368.96 241.846L362.902 237.699L359.093 244.319C359.093 244.319 366.27 248.08 368.008 246.276L368.96 241.846Z" fill="#FF8B7B"/>
<path d="M357.625 238.552L354.305 242.91L359.097 244.271L362.906 237.651L357.625 238.552Z" fill="#FF8B7B"/>
<path d="M331.645 236.024L322.768 235.011L320.219 244.774C320.219 244.774 330.366 244.857 331.965 241.951L331.645 236.024Z" fill="#FF8B7B"/>
<path d="M316.113 238.631L314.59 242.372C314.134 243.493 314.951 244.722 316.161 244.734L320.219 244.775L322.768 235.012L316.974 237.725C316.584 237.907 316.276 238.231 316.113 238.631Z" fill="#FF8B7B"/>
<path d="M408.837 199.557C408.113 197.627 404.736 195.697 402.661 195.697H401.291C398.898 195.697 395.916 195.89 393.021 196.228C387.505 196.838 382.028 197.76 376.615 198.988C374.125 199.644 371.722 200.474 369.812 201.188C369.788 201.198 369.763 201.207 369.739 201.217C367.516 202.101 366.188 204.385 366.516 206.754C367.374 212.964 369.012 225.594 369.995 238.164C370.762 247.971 370.445 257.71 370.69 264.407H411.858C413.277 256.358 413.053 249.339 413.169 234.806C413.236 226.082 411.819 207.499 408.837 199.557Z" fill="#407BFF"/>
<path opacity="0.8" d="M408.837 199.557C408.113 197.627 404.736 195.697 402.661 195.697H401.291C398.898 195.697 395.916 195.89 393.021 196.228C387.505 196.838 382.028 197.76 376.615 198.988C374.125 199.644 371.722 200.474 369.812 201.188C369.788 201.198 369.763 201.207 369.739 201.217C367.516 202.101 366.188 204.385 366.516 206.754C367.374 212.964 369.012 225.594 369.995 238.164C370.762 247.971 370.445 257.71 370.69 264.407H411.858C413.277 256.358 413.053 249.339 413.169 234.806C413.236 226.082 411.819 207.499 408.837 199.557Z" fill="white"/>
<path d="M373.251 201.703C376.618 202.971 378.311 206.739 377.013 210.094C374.07 217.701 369.133 229.766 366.954 234.014C366.124 235.525 365.293 237.026 364.347 238.537C363.874 239.298 363.343 240.054 362.775 240.833C362.463 241.23 362.215 241.592 361.846 242.004L361.321 242.614L361.023 242.952C360.181 243.819 359.157 244.489 358.025 244.914C357.429 245.144 356.818 245.333 356.197 245.479C355.182 245.698 354.151 245.835 353.114 245.889C351.324 245.996 349.529 245.983 347.742 245.851C341.121 245.3 334.573 244.078 328.199 242.204L327.524 235.449C333.81 235.626 340.236 235.839 346.236 235.539C347.65 235.464 349.06 235.314 350.459 235.092C351.022 234.995 351.576 234.853 352.116 234.668C352.293 234.609 352.461 234.529 352.617 234.428C352.675 234.423 352.611 234.361 352.367 234.548C352.277 234.609 352.196 234.682 352.125 234.764C352.125 234.764 352.184 234.671 352.211 234.64L352.453 234.317C352.61 234.128 352.795 233.82 352.975 233.571C353.323 233.035 353.677 232.46 354.027 231.836C354.719 230.619 355.381 229.279 356.031 227.92C357.331 225.203 358.511 222.333 359.659 219.436C360.473 217.383 362.864 211.143 364.877 205.566C366.102 202.167 369.869 200.429 373.251 201.703Z" fill="#407BFF"/>
<path opacity="0.2" d="M369.105 228.314C369.414 232.01 369.299 230.812 369.637 234.691C379.693 219.164 376.368 208.907 376.368 208.907L369.105 228.314Z" fill="black"/>
<path opacity="0.8" d="M373.251 201.703C376.618 202.971 378.311 206.739 377.013 210.094C374.07 217.701 369.133 229.766 366.954 234.014C366.124 235.525 365.293 237.026 364.347 238.537C363.874 239.298 363.343 240.054 362.775 240.833C362.463 241.23 362.215 241.592 361.846 242.004L361.321 242.614L361.023 242.952C360.181 243.819 359.157 244.489 358.025 244.914C357.429 245.144 356.818 245.333 356.197 245.479C355.182 245.698 354.151 245.835 353.114 245.889C351.324 245.996 349.529 245.983 347.742 245.851C341.121 245.3 334.573 244.078 328.199 242.204L327.524 235.449C333.81 235.626 340.236 235.839 346.236 235.539C347.65 235.464 349.06 235.314 350.459 235.092C351.022 234.995 351.576 234.853 352.116 234.668C352.293 234.609 352.461 234.529 352.617 234.428C352.675 234.423 352.611 234.361 352.367 234.548C352.277 234.609 352.196 234.682 352.125 234.764C352.125 234.764 352.184 234.671 352.211 234.64L352.453 234.317C352.61 234.128 352.795 233.82 352.975 233.571C353.323 233.035 353.677 232.46 354.027 231.836C354.719 230.619 355.381 229.279 356.031 227.92C357.331 225.203 358.511 222.333 359.659 219.436C360.473 217.383 362.864 211.143 364.877 205.566C366.102 202.167 369.869 200.429 373.251 201.703Z" fill="white"/>
<path d="M359.737 379.41C359.737 381.728 357.858 383.608 355.539 383.608C353.22 383.608 351.341 381.728 351.341 379.41C351.341 377.091 353.22 375.212 355.539 375.212C357.857 375.212 359.737 377.092 359.737 379.41Z" fill="#263238"/>
<path d="M421.391 379.41C421.391 381.728 423.271 383.608 425.589 383.608C427.907 383.608 429.787 381.728 429.787 379.41C429.787 377.091 427.908 375.212 425.589 375.212C423.271 375.212 421.391 377.092 421.391 379.41Z" fill="#263238"/>
<path d="M385.029 378.068C385.029 380.386 386.908 382.266 389.227 382.266C391.545 382.266 393.425 380.387 393.425 378.068C393.425 375.75 391.545 373.87 389.227 373.87C386.908 373.87 385.029 375.749 385.029 378.068Z" fill="#263238"/>
<path d="M434.735 373.774C434.542 374.75 433.663 375.445 432.667 375.416L388.888 374.817L347.892 375.745C346.897 375.774 346.018 375.078 345.834 374.102C345.612 372.991 346.336 371.928 347.438 371.706L369.825 367.358C372.153 366.923 374.501 366.701 376.869 366.701H400.927C403.284 366.701 405.642 366.923 407.961 367.358L433.121 371.387C434.223 371.6 434.948 372.662 434.735 373.774Z" fill="#263238"/>
<path d="M396.329 330.174H381.439V373.037H396.329V330.174Z" fill="#263238"/>
<path d="M394.197 303.016H383.582V330.384H394.197V303.016Z" fill="#263238"/>
<path opacity="0.2" d="M383.582 308.092L394.197 310.765V303.016H383.582V308.092Z" fill="black"/>
<path d="M349.741 263.913H344.347V286.929H349.741V263.913Z" fill="#263238"/>
<path d="M349.741 263.913H344.347V286.929H349.741V263.913Z" fill="#263238"/>
<path d="M385.505 212.307C385.411 212.935 385.364 213.563 385.364 214.2V303.012H376.789V214.2C376.789 214.134 376.789 214.059 376.798 213.994L385.505 212.307Z" fill="#263238"/>
<path d="M435.408 302.909V303.012H433.965C434.461 303.012 434.93 302.975 435.408 302.909Z" fill="#263238"/>
<path d="M443.982 211.745L443.345 201.193C443.167 198.213 441.93 195.392 439.868 193.237L433.139 186.208L429.681 168.627C429.147 165.891 426.748 163.913 423.955 163.913H408.464C405.971 163.913 403.75 165.497 402.944 167.858L396.46 186.77L384.08 194.389C380.913 196.338 378.767 199.59 378.223 203.264L376.621 214.032L376.799 213.994L385.505 212.307C385.411 212.935 385.364 213.563 385.364 214.2V303.012H433.964C434.461 303.012 434.929 302.974 435.407 302.909H435.416C440.261 302.206 443.981 298.027 443.981 292.994V213.422C443.981 212.85 443.943 212.279 443.869 211.707L443.982 211.745ZM402.889 205.035L387.876 206.469L387.22 206.534L388.832 199.665L398.878 194.82L402.224 193.208L402.88 194.82L402.992 195.092L403.601 196.573L402.889 205.035ZM432.596 205.213H432.587L430.703 204.735C430.628 204.154 430.553 203.554 430.478 202.964C430.056 199.675 429.681 196.573 429.681 196.573L429.831 195.486L430.14 193.209L437.29 199.666L437.393 201.203L437.759 206.535L432.596 205.213Z" fill="#263238"/>
<path d="M385.364 283.661V303.013H328.855C325.022 303.022 321.911 299.911 321.901 296.078C321.901 294.822 322.238 293.604 322.876 292.526C326.128 287.034 332.022 283.661 338.404 283.661H385.364Z" fill="#263238"/>
<path d="M365.366 270.938C353.493 266.793 340.567 266.793 328.695 270.938C326.23 271.867 323.46 270.811 322.239 268.477C321.139 266.151 322.615 263.14 325.607 262.089C339.472 257.244 354.57 257.244 368.435 262.089C371.426 263.131 372.903 266.152 371.803 268.477C370.58 270.798 367.825 271.852 365.366 270.938Z" fill="#263238"/>
<path opacity="0.4" d="M365.366 270.938C353.493 266.793 340.567 266.793 328.695 270.938C326.23 271.867 323.46 270.811 322.239 268.477C321.139 266.151 322.615 263.14 325.607 262.089C339.472 257.244 354.57 257.244 368.435 262.089C371.426 263.131 372.903 266.152 371.803 268.477C370.58 270.798 367.825 271.852 365.366 270.938Z" fill="#263238"/>
<rect width="205" height="70" transform="translate(185 76)" fill="#2D56B3"/>
<rect width="30" height="30" transform="translate(195.5 86)" fill="white"/>
<g clip-path="url(#clip0_2401_507)">
<path d="M216.405 98.8881H216.377C215.994 98.886 215.623 99.0269 215.338 99.2834C215.107 98.6442 214.52 98.1847 213.832 98.1847C213.411 98.1876 213.008 98.3606 212.716 98.6647C212.448 98.1213 211.909 97.7526 211.29 97.7526H211.26C210.929 97.7475 210.605 97.8555 210.342 98.0585V94.1844C210.342 93.2482 209.613 92.4866 208.727 92.4866C207.841 92.4866 207.116 93.2477 207.116 94.1832L207.108 101.87L206.673 101.341C206.292 100.866 205.73 100.572 205.123 100.527C204.528 100.486 203.942 100.693 203.505 101.099L203.127 101.413C203.005 101.514 202.97 101.687 203.043 101.827L206.723 108.901C207.396 110.194 208.676 111 210.064 111H214.211V110.996C216.314 110.996 218.019 109.172 218.021 106.931C218.022 105.929 218.018 105.182 218.019 104.576C218.021 102.956 218.019 102.358 218.015 100.574C218.013 99.6395 217.289 98.8881 216.405 98.8881ZM217.341 104.574C217.34 105.18 217.339 105.93 217.338 106.932C217.336 108.802 215.925 110.327 214.192 110.327H210.064C208.928 110.327 207.877 109.659 207.32 108.59L203.765 101.759L203.941 101.613C203.945 101.609 203.95 101.605 203.954 101.601C204.256 101.317 204.662 101.171 205.075 101.198C205.498 101.231 205.888 101.438 206.152 101.769L207.182 103.022C207.272 103.132 207.422 103.173 207.555 103.125C207.689 103.077 207.778 102.951 207.778 102.809L207.784 94.1836C207.785 93.6188 208.212 93.1593 208.727 93.1593C209.242 93.1593 209.669 93.6193 209.669 94.1844V99.3849C209.669 99.4029 209.669 99.4212 209.669 99.4396C209.669 99.4475 209.669 99.4555 209.669 99.4632V101.687C209.669 101.873 209.82 102.023 210.006 102.023C210.192 102.023 210.342 101.873 210.342 101.687V99.3962C210.342 98.8513 210.759 98.4255 211.26 98.4255H211.29C211.806 98.4255 212.235 98.8748 212.235 99.4399V101.474C212.235 101.66 212.385 101.811 212.571 101.811C212.757 101.811 212.908 101.66 212.908 101.474V99.8782C212.908 99.3129 213.316 98.8531 213.834 98.8531C214.35 98.8531 214.758 99.3128 214.758 99.8782V101.384C214.758 101.57 214.909 101.721 215.094 101.721C215.28 101.721 215.431 101.57 215.431 101.384V100.569C215.431 100.003 215.862 99.561 216.377 99.561H216.405C216.919 99.561 217.338 100.011 217.34 100.574C217.344 102.358 217.343 102.955 217.341 104.574Z" fill="#407BFF"/>
<path d="M206.047 94.3296C206.233 94.3296 206.383 94.1789 206.383 93.9931C206.389 92.7093 207.431 91.6716 208.715 91.6716C209.998 91.6716 211.041 92.7093 211.046 93.9931C211.046 94.1789 211.197 94.3296 211.382 94.3296C211.568 94.3296 211.719 94.1789 211.719 93.9931C211.713 92.3382 210.37 91 208.715 91C207.06 91 205.717 92.3382 205.71 93.9931C205.71 94.1789 205.861 94.3296 206.047 94.3296Z" fill="#407BFF"/>
</g>
<path d="M197.98 132.07C197.52 132.07 197.107 131.99 196.74 131.83C196.38 131.663 196.097 131.437 195.89 131.15C195.683 130.857 195.577 130.52 195.57 130.14H196.54C196.573 130.467 196.707 130.743 196.94 130.97C197.18 131.19 197.527 131.3 197.98 131.3C198.413 131.3 198.753 131.193 199 130.98C199.253 130.76 199.38 130.48 199.38 130.14C199.38 129.873 199.307 129.657 199.16 129.49C199.013 129.323 198.83 129.197 198.61 129.11C198.39 129.023 198.093 128.93 197.72 128.83C197.26 128.71 196.89 128.59 196.61 128.47C196.337 128.35 196.1 128.163 195.9 127.91C195.707 127.65 195.61 127.303 195.61 126.87C195.61 126.49 195.707 126.153 195.9 125.86C196.093 125.567 196.363 125.34 196.71 125.18C197.063 125.02 197.467 124.94 197.92 124.94C198.573 124.94 199.107 125.103 199.52 125.43C199.94 125.757 200.177 126.19 200.23 126.73H199.23C199.197 126.463 199.057 126.23 198.81 126.03C198.563 125.823 198.237 125.72 197.83 125.72C197.45 125.72 197.14 125.82 196.9 126.02C196.66 126.213 196.54 126.487 196.54 126.84C196.54 127.093 196.61 127.3 196.75 127.46C196.897 127.62 197.073 127.743 197.28 127.83C197.493 127.91 197.79 128.003 198.17 128.11C198.63 128.237 199 128.363 199.28 128.49C199.56 128.61 199.8 128.8 200 129.06C200.2 129.313 200.3 129.66 200.3 130.1C200.3 130.44 200.21 130.76 200.03 131.06C199.85 131.36 199.583 131.603 199.23 131.79C198.877 131.977 198.46 132.07 197.98 132.07ZM206.639 129.05C206.639 129.223 206.629 129.407 206.609 129.6H202.229C202.262 130.14 202.446 130.563 202.779 130.87C203.119 131.17 203.529 131.32 204.009 131.32C204.402 131.32 204.729 131.23 204.989 131.05C205.256 130.863 205.442 130.617 205.549 130.31H206.529C206.382 130.837 206.089 131.267 205.649 131.6C205.209 131.927 204.662 132.09 204.009 132.09C203.489 132.09 203.022 131.973 202.609 131.74C202.202 131.507 201.882 131.177 201.649 130.75C201.416 130.317 201.299 129.817 201.299 129.25C201.299 128.683 201.412 128.187 201.639 127.76C201.866 127.333 202.182 127.007 202.589 126.78C203.002 126.547 203.476 126.43 204.009 126.43C204.529 126.43 204.989 126.543 205.389 126.77C205.789 126.997 206.096 127.31 206.309 127.71C206.529 128.103 206.639 128.55 206.639 129.05ZM205.699 128.86C205.699 128.513 205.622 128.217 205.469 127.97C205.316 127.717 205.106 127.527 204.839 127.4C204.579 127.267 204.289 127.2 203.969 127.2C203.509 127.2 203.116 127.347 202.789 127.64C202.469 127.933 202.286 128.34 202.239 128.86H205.699ZM208.75 124.6V132H207.84V124.6H208.75ZM215.301 129.05C215.301 129.223 215.291 129.407 215.271 129.6H210.891C210.925 130.14 211.108 130.563 211.441 130.87C211.781 131.17 212.191 131.32 212.671 131.32C213.065 131.32 213.391 131.23 213.651 131.05C213.918 130.863 214.105 130.617 214.211 130.31H215.191C215.045 130.837 214.751 131.267 214.311 131.6C213.871 131.927 213.325 132.09 212.671 132.09C212.151 132.09 211.685 131.973 211.271 131.74C210.865 131.507 210.545 131.177 210.311 130.75C210.078 130.317 209.961 129.817 209.961 129.25C209.961 128.683 210.075 128.187 210.301 127.76C210.528 127.333 210.845 127.007 211.251 126.78C211.665 126.547 212.138 126.43 212.671 126.43C213.191 126.43 213.651 126.543 214.051 126.77C214.451 126.997 214.758 127.31 214.971 127.71C215.191 128.103 215.301 128.55 215.301 129.05ZM214.361 128.86C214.361 128.513 214.285 128.217 214.131 127.97C213.978 127.717 213.768 127.527 213.501 127.4C213.241 127.267 212.951 127.2 212.631 127.2C212.171 127.2 211.778 127.347 211.451 127.64C211.131 127.933 210.948 128.34 210.901 128.86H214.361ZM216.162 129.25C216.162 128.683 216.276 128.19 216.502 127.77C216.729 127.343 217.042 127.013 217.442 126.78C217.849 126.547 218.312 126.43 218.832 126.43C219.506 126.43 220.059 126.593 220.492 126.92C220.932 127.247 221.222 127.7 221.362 128.28H220.382C220.289 127.947 220.106 127.683 219.832 127.49C219.566 127.297 219.232 127.2 218.832 127.2C218.312 127.2 217.892 127.38 217.572 127.74C217.252 128.093 217.092 128.597 217.092 129.25C217.092 129.91 217.252 130.42 217.572 130.78C217.892 131.14 218.312 131.32 218.832 131.32C219.232 131.32 219.566 131.227 219.832 131.04C220.099 130.853 220.282 130.587 220.382 130.24H221.362C221.216 130.8 220.922 131.25 220.482 131.59C220.042 131.923 219.492 132.09 218.832 132.09C218.312 132.09 217.849 131.973 217.442 131.74C217.042 131.507 216.729 131.177 216.502 130.75C216.276 130.323 216.162 129.823 216.162 129.25ZM223.687 127.27V130.5C223.687 130.767 223.743 130.957 223.857 131.07C223.97 131.177 224.167 131.23 224.447 131.23H225.117V132H224.297C223.79 132 223.41 131.883 223.157 131.65C222.903 131.417 222.777 131.033 222.777 130.5V127.27H222.067V126.52H222.777V125.14H223.687V126.52H225.117V127.27H223.687Z" fill="white"/>
<rect width="30" height="30" transform="translate(233.5 86)" fill="white"/>
<g clip-path="url(#clip1_2401_507)">
<path d="M248.5 91C242.986 91 238.5 95.4857 238.5 101C238.5 106.514 242.986 111 248.5 111C254.014 111 258.5 106.514 258.5 101C258.5 95.4864 254.014 91 248.5 91ZM248.5 109.451C243.841 109.451 240.049 105.66 240.049 101C240.049 96.34 243.841 92.5492 248.5 92.5492C253.159 92.5492 256.951 96.34 256.951 101C256.951 105.66 253.16 109.451 248.5 109.451Z" fill="#407BFF"/>
<path d="M252.373 100.156H249.275V97.0573C249.275 96.6297 248.928 96.2827 248.5 96.2827C248.072 96.2827 247.725 96.6297 247.725 97.0573V100.156H244.627C244.199 100.156 243.852 100.503 243.852 100.93C243.852 101.358 244.199 101.705 244.627 101.705H247.725V104.803C247.725 105.231 248.072 105.578 248.5 105.578C248.928 105.578 249.275 105.231 249.275 104.803V101.705H252.373C252.801 101.705 253.148 101.358 253.148 100.93C253.148 100.503 252.801 100.156 252.373 100.156Z" fill="#407BFF"/>
</g>
<path d="M231.43 128.51C231.43 127.83 231.583 127.22 231.89 126.68C232.197 126.133 232.613 125.707 233.14 125.4C233.673 125.093 234.263 124.94 234.91 124.94C235.67 124.94 236.333 125.123 236.9 125.49C237.467 125.857 237.88 126.377 238.14 127.05H237.05C236.857 126.63 236.577 126.307 236.21 126.08C235.85 125.853 235.417 125.74 234.91 125.74C234.423 125.74 233.987 125.853 233.6 126.08C233.213 126.307 232.91 126.63 232.69 127.05C232.47 127.463 232.36 127.95 232.36 128.51C232.36 129.063 232.47 129.55 232.69 129.97C232.91 130.383 233.213 130.703 233.6 130.93C233.987 131.157 234.423 131.27 234.91 131.27C235.417 131.27 235.85 131.16 236.21 130.94C236.577 130.713 236.857 130.39 237.05 129.97H238.14C237.88 130.637 237.467 131.153 236.9 131.52C236.333 131.88 235.67 132.06 234.91 132.06C234.263 132.06 233.673 131.91 233.14 131.61C232.613 131.303 232.197 130.88 231.89 130.34C231.583 129.8 231.43 129.19 231.43 128.51ZM240.405 127.41C240.565 127.097 240.791 126.853 241.085 126.68C241.385 126.507 241.748 126.42 242.175 126.42V127.36H241.935C240.915 127.36 240.405 127.913 240.405 129.02V132H239.495V126.52H240.405V127.41ZM248.225 129.05C248.225 129.223 248.215 129.407 248.195 129.6H243.815C243.848 130.14 244.032 130.563 244.365 130.87C244.705 131.17 245.115 131.32 245.595 131.32C245.988 131.32 246.315 131.23 246.575 131.05C246.842 130.863 247.028 130.617 247.135 130.31H248.115C247.968 130.837 247.675 131.267 247.235 131.6C246.795 131.927 246.248 132.09 245.595 132.09C245.075 132.09 244.608 131.973 244.195 131.74C243.788 131.507 243.468 131.177 243.235 130.75C243.002 130.317 242.885 129.817 242.885 129.25C242.885 128.683 242.998 128.187 243.225 127.76C243.452 127.333 243.768 127.007 244.175 126.78C244.588 126.547 245.062 126.43 245.595 126.43C246.115 126.43 246.575 126.543 246.975 126.77C247.375 126.997 247.682 127.31 247.895 127.71C248.115 128.103 248.225 128.55 248.225 129.05ZM247.285 128.86C247.285 128.513 247.208 128.217 247.055 127.97C246.902 127.717 246.692 127.527 246.425 127.4C246.165 127.267 245.875 127.2 245.555 127.2C245.095 127.2 244.702 127.347 244.375 127.64C244.055 127.933 243.872 128.34 243.825 128.86H247.285ZM249.086 129.24C249.086 128.68 249.2 128.19 249.426 127.77C249.653 127.343 249.963 127.013 250.356 126.78C250.756 126.547 251.2 126.43 251.686 126.43C252.166 126.43 252.583 126.533 252.936 126.74C253.29 126.947 253.553 127.207 253.726 127.52V126.52H254.646V132H253.726V130.98C253.546 131.3 253.276 131.567 252.916 131.78C252.563 131.987 252.15 132.09 251.676 132.09C251.19 132.09 250.75 131.97 250.356 131.73C249.963 131.49 249.653 131.153 249.426 130.72C249.2 130.287 249.086 129.793 249.086 129.24ZM253.726 129.25C253.726 128.837 253.643 128.477 253.476 128.17C253.31 127.863 253.083 127.63 252.796 127.47C252.516 127.303 252.206 127.22 251.866 127.22C251.526 127.22 251.216 127.3 250.936 127.46C250.656 127.62 250.433 127.853 250.266 128.16C250.1 128.467 250.016 128.827 250.016 129.24C250.016 129.66 250.1 130.027 250.266 130.34C250.433 130.647 250.656 130.883 250.936 131.05C251.216 131.21 251.526 131.29 251.866 131.29C252.206 131.29 252.516 131.21 252.796 131.05C253.083 130.883 253.31 130.647 253.476 130.34C253.643 130.027 253.726 129.663 253.726 129.25ZM257.294 127.27V130.5C257.294 130.767 257.351 130.957 257.464 131.07C257.577 131.177 257.774 131.23 258.054 131.23H258.724V132H257.904C257.397 132 257.017 131.883 256.764 131.65C256.511 131.417 256.384 131.033 256.384 130.5V127.27H255.674V126.52H256.384V125.14H257.294V126.52H258.724V127.27H257.294ZM264.827 129.05C264.827 129.223 264.817 129.407 264.797 129.6H260.417C260.45 130.14 260.633 130.563 260.967 130.87C261.307 131.17 261.717 131.32 262.197 131.32C262.59 131.32 262.917 131.23 263.177 131.05C263.443 130.863 263.63 130.617 263.737 130.31H264.717C264.57 130.837 264.277 131.267 263.837 131.6C263.397 131.927 262.85 132.09 262.197 132.09C261.677 132.09 261.21 131.973 260.797 131.74C260.39 131.507 260.07 131.177 259.837 130.75C259.603 130.317 259.487 129.817 259.487 129.25C259.487 128.683 259.6 128.187 259.827 127.76C260.053 127.333 260.37 127.007 260.777 126.78C261.19 126.547 261.663 126.43 262.197 126.43C262.717 126.43 263.177 126.543 263.577 126.77C263.977 126.997 264.283 127.31 264.497 127.71C264.717 128.103 264.827 128.55 264.827 129.05ZM263.887 128.86C263.887 128.513 263.81 128.217 263.657 127.97C263.503 127.717 263.293 127.527 263.027 127.4C262.767 127.267 262.477 127.2 262.157 127.2C261.697 127.2 261.303 127.347 260.977 127.64C260.657 127.933 260.473 128.34 260.427 128.86H263.887Z" fill="white"/>
<rect width="30" height="30" transform="translate(272 86)" fill="white"/>
<path d="M292.833 96.8334C292.612 96.8334 292.4 96.9212 292.244 97.0775C292.088 97.2337 292 97.4457 292 97.6667V106.993C291.976 107.414 291.787 107.809 291.473 108.091C291.159 108.374 290.747 108.521 290.325 108.5H283.675C283.253 108.521 282.841 108.374 282.527 108.091C282.213 107.809 282.024 107.414 282 106.993V97.6667C282 97.4457 281.912 97.2337 281.756 97.0775C281.6 96.9212 281.388 96.8334 281.167 96.8334C280.946 96.8334 280.734 96.9212 280.577 97.0775C280.421 97.2337 280.333 97.4457 280.333 97.6667V106.993C280.357 107.856 280.722 108.675 281.349 109.27C281.975 109.865 282.811 110.187 283.675 110.167H290.325C291.189 110.187 292.025 109.865 292.652 109.27C293.278 108.675 293.643 107.856 293.667 106.993V97.6667C293.667 97.4457 293.579 97.2337 293.423 97.0775C293.266 96.9212 293.054 96.8334 292.833 96.8334Z" fill="#407BFF"/>
<path d="M293.667 94.3334H290.333V92.6667C290.333 92.4457 290.246 92.2337 290.089 92.0775C289.933 91.9212 289.721 91.8334 289.5 91.8334H284.5C284.279 91.8334 284.067 91.9212 283.911 92.0775C283.754 92.2337 283.667 92.4457 283.667 92.6667V94.3334H280.333C280.112 94.3334 279.9 94.4212 279.744 94.5775C279.588 94.7337 279.5 94.9457 279.5 95.1667C279.5 95.3877 279.588 95.5997 279.744 95.756C279.9 95.9122 280.112 96 280.333 96H293.667C293.888 96 294.1 95.9122 294.256 95.756C294.412 95.5997 294.5 95.3877 294.5 95.1667C294.5 94.9457 294.412 94.7337 294.256 94.5775C294.1 94.4212 293.888 94.3334 293.667 94.3334ZM285.333 94.3334V93.5H288.667V94.3334H285.333Z" fill="#407BFF"/>
<path d="M286.167 105.167V99.3333C286.167 99.1123 286.079 98.9004 285.923 98.7441C285.766 98.5878 285.554 98.5 285.333 98.5C285.112 98.5 284.9 98.5878 284.744 98.7441C284.588 98.9004 284.5 99.1123 284.5 99.3333V105.167C284.5 105.388 284.588 105.6 284.744 105.756C284.9 105.912 285.112 106 285.333 106C285.554 106 285.766 105.912 285.923 105.756C286.079 105.6 286.167 105.388 286.167 105.167Z" fill="#407BFF"/>
<path d="M289.5 105.167V99.3333C289.5 99.1123 289.412 98.9004 289.256 98.7441C289.1 98.5878 288.888 98.5 288.667 98.5C288.446 98.5 288.234 98.5878 288.077 98.7441C287.921 98.9004 287.833 99.1123 287.833 99.3333V105.167C287.833 105.388 287.921 105.6 288.077 105.756C288.234 105.912 288.446 106 288.667 106C288.888 106 289.1 105.912 289.256 105.756C289.412 105.6 289.5 105.388 289.5 105.167Z" fill="#407BFF"/>
<path d="M273.94 125.03C274.7 125.03 275.357 125.173 275.91 125.46C276.47 125.74 276.897 126.143 277.19 126.67C277.49 127.197 277.64 127.817 277.64 128.53C277.64 129.243 277.49 129.863 277.19 130.39C276.897 130.91 276.47 131.31 275.91 131.59C275.357 131.863 274.7 132 273.94 132H271.77V125.03H273.94ZM273.94 131.25C274.84 131.25 275.527 131.013 276 130.54C276.473 130.06 276.71 129.39 276.71 128.53C276.71 127.663 276.47 126.987 275.99 126.5C275.517 126.013 274.833 125.77 273.94 125.77H272.68V131.25H273.94ZM283.84 129.05C283.84 129.223 283.83 129.407 283.81 129.6H279.43C279.464 130.14 279.647 130.563 279.98 130.87C280.32 131.17 280.73 131.32 281.21 131.32C281.604 131.32 281.93 131.23 282.19 131.05C282.457 130.863 282.644 130.617 282.75 130.31H283.73C283.584 130.837 283.29 131.267 282.85 131.6C282.41 131.927 281.864 132.09 281.21 132.09C280.69 132.09 280.224 131.973 279.81 131.74C279.404 131.507 279.084 131.177 278.85 130.75C278.617 130.317 278.5 129.817 278.5 129.25C278.5 128.683 278.614 128.187 278.84 127.76C279.067 127.333 279.384 127.007 279.79 126.78C280.204 126.547 280.677 126.43 281.21 126.43C281.73 126.43 282.19 126.543 282.59 126.77C282.99 126.997 283.297 127.31 283.51 127.71C283.73 128.103 283.84 128.55 283.84 129.05ZM282.9 128.86C282.9 128.513 282.824 128.217 282.67 127.97C282.517 127.717 282.307 127.527 282.04 127.4C281.78 127.267 281.49 127.2 281.17 127.2C280.71 127.2 280.317 127.347 279.99 127.64C279.67 127.933 279.487 128.34 279.44 128.86H282.9ZM285.951 124.6V132H285.041V124.6H285.951ZM292.502 129.05C292.502 129.223 292.492 129.407 292.472 129.6H288.092C288.126 130.14 288.309 130.563 288.642 130.87C288.982 131.17 289.392 131.32 289.872 131.32C290.266 131.32 290.592 131.23 290.852 131.05C291.119 130.863 291.306 130.617 291.412 130.31H292.392C292.246 130.837 291.952 131.267 291.512 131.6C291.072 131.927 290.526 132.09 289.872 132.09C289.352 132.09 288.886 131.973 288.472 131.74C288.066 131.507 287.746 131.177 287.512 130.75C287.279 130.317 287.162 129.817 287.162 129.25C287.162 128.683 287.276 128.187 287.502 127.76C287.729 127.333 288.046 127.007 288.452 126.78C288.866 126.547 289.339 126.43 289.872 126.43C290.392 126.43 290.852 126.543 291.252 126.77C291.652 126.997 291.959 127.31 292.172 127.71C292.392 128.103 292.502 128.55 292.502 129.05ZM291.562 128.86C291.562 128.513 291.486 128.217 291.332 127.97C291.179 127.717 290.969 127.527 290.702 127.4C290.442 127.267 290.152 127.2 289.832 127.2C289.372 127.2 288.979 127.347 288.652 127.64C288.332 127.933 288.149 128.34 288.102 128.86H291.562ZM294.814 127.27V130.5C294.814 130.767 294.87 130.957 294.984 131.07C295.097 131.177 295.294 131.23 295.574 131.23H296.244V132H295.424C294.917 132 294.537 131.883 294.284 131.65C294.03 131.417 293.904 131.033 293.904 130.5V127.27H293.194V126.52H293.904V125.14H294.814V126.52H296.244V127.27H294.814ZM302.346 129.05C302.346 129.223 302.336 129.407 302.316 129.6H297.936C297.97 130.14 298.153 130.563 298.486 130.87C298.826 131.17 299.236 131.32 299.716 131.32C300.11 131.32 300.436 131.23 300.696 131.05C300.963 130.863 301.15 130.617 301.256 130.31H302.236C302.09 130.837 301.796 131.267 301.356 131.6C300.916 131.927 300.37 132.09 299.716 132.09C299.196 132.09 298.73 131.973 298.316 131.74C297.91 131.507 297.59 131.177 297.356 130.75C297.123 130.317 297.006 129.817 297.006 129.25C297.006 128.683 297.12 128.187 297.346 127.76C297.573 127.333 297.89 127.007 298.296 126.78C298.71 126.547 299.183 126.43 299.716 126.43C300.236 126.43 300.696 126.543 301.096 126.77C301.496 126.997 301.803 127.31 302.016 127.71C302.236 128.103 302.346 128.55 302.346 129.05ZM301.406 128.86C301.406 128.513 301.33 128.217 301.176 127.97C301.023 127.717 300.813 127.527 300.546 127.4C300.286 127.267 299.996 127.2 299.676 127.2C299.216 127.2 298.823 127.347 298.496 127.64C298.176 127.933 297.993 128.34 297.946 128.86H301.406Z" fill="white"/>
<rect width="30" height="30" transform="translate(311.5 86)" fill="white"/>
<g clip-path="url(#clip2_2401_507)">
<path d="M335.79 93.7589C335.36 93.7198 334.98 94.0364 334.941 94.4661L334.837 95.6016C333.081 92.8435 330.032 91 326.5 91C322.7 91 319.351 93.1688 317.689 96.424C317.492 96.8082 317.645 97.2788 318.029 97.4751C318.413 97.6713 318.884 97.5189 319.08 97.1346C320.487 94.3798 323.312 92.5625 326.5 92.5625C329.405 92.5625 332.027 94.0754 333.529 96.4456L332.415 95.65C332.064 95.3993 331.576 95.4806 331.326 95.8317C331.075 96.1829 331.156 96.6707 331.507 96.9215L334.885 99.3341C335.38 99.687 336.063 99.3639 336.117 98.7693L336.497 94.6079C336.536 94.1782 336.219 93.7981 335.79 93.7589Z" fill="#407BFF"/>
<path d="M334.971 104.525C334.587 104.329 334.116 104.481 333.92 104.865C332.513 107.62 329.688 109.437 326.5 109.437C323.595 109.437 320.973 107.925 319.471 105.554L320.584 106.35C320.936 106.601 321.424 106.519 321.674 106.168C321.925 105.817 321.844 105.329 321.493 105.078L318.115 102.666C317.626 102.317 316.937 102.63 316.883 103.231L316.503 107.392C316.464 107.822 316.781 108.202 317.21 108.241C317.641 108.28 318.02 107.963 318.059 107.534L318.163 106.398C319.919 109.156 322.968 111 326.5 111C330.3 111 333.649 108.831 335.311 105.576C335.508 105.192 335.355 104.721 334.971 104.525Z" fill="#407BFF"/>
</g>
<path d="M309.66 125.03V129.44C309.66 130.06 309.81 130.52 310.11 130.82C310.417 131.12 310.84 131.27 311.38 131.27C311.913 131.27 312.33 131.12 312.63 130.82C312.937 130.52 313.09 130.06 313.09 129.44V125.03H314V129.43C314 130.01 313.883 130.5 313.65 130.9C313.417 131.293 313.1 131.587 312.7 131.78C312.307 131.973 311.863 132.07 311.37 132.07C310.877 132.07 310.43 131.973 310.03 131.78C309.637 131.587 309.323 131.293 309.09 130.9C308.863 130.5 308.75 130.01 308.75 129.43V125.03H309.66ZM316.428 127.53C316.608 127.217 316.875 126.957 317.228 126.75C317.588 126.537 318.005 126.43 318.478 126.43C318.965 126.43 319.405 126.547 319.798 126.78C320.198 127.013 320.511 127.343 320.738 127.77C320.965 128.19 321.078 128.68 321.078 129.24C321.078 129.793 320.965 130.287 320.738 130.72C320.511 131.153 320.198 131.49 319.798 131.73C319.405 131.97 318.965 132.09 318.478 132.09C318.011 132.09 317.598 131.987 317.238 131.78C316.885 131.567 316.615 131.303 316.428 130.99V134.6H315.518V126.52H316.428V127.53ZM320.148 129.24C320.148 128.827 320.065 128.467 319.898 128.16C319.731 127.853 319.505 127.62 319.218 127.46C318.938 127.3 318.628 127.22 318.288 127.22C317.955 127.22 317.645 127.303 317.358 127.47C317.078 127.63 316.851 127.867 316.678 128.18C316.511 128.487 316.428 128.843 316.428 129.25C316.428 129.663 316.511 130.027 316.678 130.34C316.851 130.647 317.078 130.883 317.358 131.05C317.645 131.21 317.955 131.29 318.288 131.29C318.628 131.29 318.938 131.21 319.218 131.05C319.505 130.883 319.731 130.647 319.898 130.34C320.065 130.027 320.148 129.66 320.148 129.24ZM321.936 129.24C321.936 128.68 322.049 128.19 322.276 127.77C322.503 127.343 322.813 127.013 323.206 126.78C323.606 126.547 324.053 126.43 324.546 126.43C324.973 126.43 325.369 126.53 325.736 126.73C326.103 126.923 326.383 127.18 326.576 127.5V124.6H327.496V132H326.576V130.97C326.396 131.297 326.129 131.567 325.776 131.78C325.423 131.987 325.009 132.09 324.536 132.09C324.049 132.09 323.606 131.97 323.206 131.73C322.813 131.49 322.503 131.153 322.276 130.72C322.049 130.287 321.936 129.793 321.936 129.24ZM326.576 129.25C326.576 128.837 326.493 128.477 326.326 128.17C326.159 127.863 325.933 127.63 325.646 127.47C325.366 127.303 325.056 127.22 324.716 127.22C324.376 127.22 324.066 127.3 323.786 127.46C323.506 127.62 323.283 127.853 323.116 128.16C322.949 128.467 322.866 128.827 322.866 129.24C322.866 129.66 322.949 130.027 323.116 130.34C323.283 130.647 323.506 130.883 323.786 131.05C324.066 131.21 324.376 131.29 324.716 131.29C325.056 131.29 325.366 131.21 325.646 131.05C325.933 130.883 326.159 130.647 326.326 130.34C326.493 130.027 326.576 129.663 326.576 129.25ZM328.694 129.24C328.694 128.68 328.807 128.19 329.034 127.77C329.26 127.343 329.57 127.013 329.964 126.78C330.364 126.547 330.807 126.43 331.294 126.43C331.774 126.43 332.19 126.533 332.544 126.74C332.897 126.947 333.16 127.207 333.334 127.52V126.52H334.254V132H333.334V130.98C333.154 131.3 332.884 131.567 332.524 131.78C332.17 131.987 331.757 132.09 331.284 132.09C330.797 132.09 330.357 131.97 329.964 131.73C329.57 131.49 329.26 131.153 329.034 130.72C328.807 130.287 328.694 129.793 328.694 129.24ZM333.334 129.25C333.334 128.837 333.25 128.477 333.084 128.17C332.917 127.863 332.69 127.63 332.404 127.47C332.124 127.303 331.814 127.22 331.474 127.22C331.134 127.22 330.824 127.3 330.544 127.46C330.264 127.62 330.04 127.853 329.874 128.16C329.707 128.467 329.624 128.827 329.624 129.24C329.624 129.66 329.707 130.027 329.874 130.34C330.04 130.647 330.264 130.883 330.544 131.05C330.824 131.21 331.134 131.29 331.474 131.29C331.814 131.29 332.124 131.21 332.404 131.05C332.69 130.883 332.917 130.647 333.084 130.34C333.25 130.027 333.334 129.663 333.334 129.25ZM336.901 127.27V130.5C336.901 130.767 336.958 130.957 337.071 131.07C337.185 131.177 337.381 131.23 337.661 131.23H338.331V132H337.511C337.005 132 336.625 131.883 336.371 131.65C336.118 131.417 335.991 131.033 335.991 130.5V127.27H335.281V126.52H335.991V125.14H336.901V126.52H338.331V127.27H336.901ZM344.434 129.05C344.434 129.223 344.424 129.407 344.404 129.6H340.024C340.057 130.14 340.241 130.563 340.574 130.87C340.914 131.17 341.324 131.32 341.804 131.32C342.197 131.32 342.524 131.23 342.784 131.05C343.051 130.863 343.237 130.617 343.344 130.31H344.324C344.177 130.837 343.884 131.267 343.444 131.6C343.004 131.927 342.457 132.09 341.804 132.09C341.284 132.09 340.817 131.973 340.404 131.74C339.997 131.507 339.677 131.177 339.444 130.75C339.211 130.317 339.094 129.817 339.094 129.25C339.094 128.683 339.207 128.187 339.434 127.76C339.661 127.333 339.977 127.007 340.384 126.78C340.797 126.547 341.271 126.43 341.804 126.43C342.324 126.43 342.784 126.543 343.184 126.77C343.584 126.997 343.891 127.31 344.104 127.71C344.324 128.103 344.434 128.55 344.434 129.05ZM343.494 128.86C343.494 128.513 343.417 128.217 343.264 127.97C343.111 127.717 342.901 127.527 342.634 127.4C342.374 127.267 342.084 127.2 341.764 127.2C341.304 127.2 340.911 127.347 340.584 127.64C340.264 127.933 340.081 128.34 340.034 128.86H343.494Z" fill="white"/>
<rect width="30" height="30" transform="translate(350 86)" fill="white"/>
<g clip-path="url(#clip3_2401_507)">
<path d="M373.459 103.564C373.184 103.564 372.961 103.787 372.961 104.062V108.485C372.96 109.31 372.292 109.978 371.467 109.979H357.491C356.666 109.978 355.997 109.31 355.996 108.485V95.5046C355.997 94.6798 356.666 94.0112 357.491 94.0102H361.913C362.188 94.0102 362.411 93.7873 362.411 93.5121C362.411 93.2372 362.188 93.014 361.913 93.014H357.491C356.116 93.0156 355.002 94.1297 355 95.5046V108.485C355.002 109.86 356.116 110.974 357.491 110.975H371.467C372.842 110.974 373.956 109.86 373.957 108.485V104.062C373.957 103.787 373.734 103.564 373.459 103.564Z" fill="#407BFF"/>
<path d="M373.76 91.7323C372.885 90.857 371.465 90.857 370.59 91.7323L361.704 100.619C361.643 100.68 361.599 100.755 361.576 100.838L360.407 105.057C360.359 105.23 360.408 105.415 360.535 105.542C360.662 105.669 360.847 105.718 361.02 105.67L365.239 104.501C365.322 104.478 365.397 104.434 365.458 104.373L374.344 95.4868C375.218 94.6108 375.218 93.1928 374.344 92.3168L373.76 91.7323ZM362.789 100.943L370.062 93.6695L372.407 96.0151L365.134 103.288L362.789 100.943ZM362.32 101.883L364.194 103.757L361.602 104.475L362.32 101.883ZM373.64 94.7824L373.112 95.3107L370.766 92.965L371.295 92.4367C371.781 91.9505 372.569 91.9505 373.055 92.4367L373.64 93.0212C374.126 93.508 374.126 94.2958 373.64 94.7824Z" fill="#407BFF"/>
</g>
<path d="M357.68 125.77V128.1H360.22V128.85H357.68V131.25H360.52V132H356.77V125.02H360.52V125.77H357.68ZM361.557 129.24C361.557 128.68 361.67 128.19 361.897 127.77C362.124 127.343 362.434 127.013 362.827 126.78C363.227 126.547 363.674 126.43 364.167 126.43C364.594 126.43 364.99 126.53 365.357 126.73C365.724 126.923 366.004 127.18 366.197 127.5V124.6H367.117V132H366.197V130.97C366.017 131.297 365.75 131.567 365.397 131.78C365.044 131.987 364.63 132.09 364.157 132.09C363.67 132.09 363.227 131.97 362.827 131.73C362.434 131.49 362.124 131.153 361.897 130.72C361.67 130.287 361.557 129.793 361.557 129.24ZM366.197 129.25C366.197 128.837 366.114 128.477 365.947 128.17C365.78 127.863 365.554 127.63 365.267 127.47C364.987 127.303 364.677 127.22 364.337 127.22C363.997 127.22 363.687 127.3 363.407 127.46C363.127 127.62 362.904 127.853 362.737 128.16C362.57 128.467 362.487 128.827 362.487 129.24C362.487 129.66 362.57 130.027 362.737 130.34C362.904 130.647 363.127 130.883 363.407 131.05C363.687 131.21 363.997 131.29 364.337 131.29C364.677 131.29 364.987 131.21 365.267 131.05C365.554 130.883 365.78 130.647 365.947 130.34C366.114 130.027 366.197 129.663 366.197 129.25ZM369.125 125.63C368.951 125.63 368.805 125.57 368.685 125.45C368.565 125.33 368.505 125.183 368.505 125.01C368.505 124.837 368.565 124.69 368.685 124.57C368.805 124.45 368.951 124.39 369.125 124.39C369.291 124.39 369.431 124.45 369.545 124.57C369.665 124.69 369.725 124.837 369.725 125.01C369.725 125.183 369.665 125.33 369.545 125.45C369.431 125.57 369.291 125.63 369.125 125.63ZM369.565 126.52V132H368.655V126.52H369.565ZM372.226 127.27V130.5C372.226 130.767 372.282 130.957 372.396 131.07C372.509 131.177 372.706 131.23 372.986 131.23H373.656V132H372.836C372.329 132 371.949 131.883 371.696 131.65C371.442 131.417 371.316 131.033 371.316 130.5V127.27H370.606V126.52H371.316V125.14H372.226V126.52H373.656V127.27H372.226Z" fill="white"/>
<defs>
<clipPath id="clip0_2401_507">
<rect width="20" height="20" fill="white" transform="translate(200.5 91)"/>
</clipPath>
<clipPath id="clip1_2401_507">
<rect width="20" height="20" fill="white" transform="translate(238.5 91)"/>
</clipPath>
<clipPath id="clip2_2401_507">
<rect width="20" height="20" fill="white" transform="translate(316.5 91)"/>
</clipPath>
<clipPath id="clip3_2401_507">
<rect width="20" height="20" fill="white" transform="translate(355 91)"/>
</clipPath>
</defs>
</svg>
